<svg width="25" height="25" viewBox="0 0 25 25" fill="none" xmlns="http://www.w3.org/2000/svg">
<path d="M12.5784 2.81976e-07C7.46059 0.00321222 2.67294 3.27669 0.804574 8.03318C-1.04112 12.7319 0.369336 18.6211 4.20896 21.9156C8.10919 25.2621 13.954 26.0239 18.4882 23.5165C22.9692 21.0384 25.597 15.8471 24.884 10.7834C24.4665 7.81821 22.9456 4.95358 20.6242 3.04046C18.207 1.0484 15.1017 -0.024686 11.9631 0.167003C10.4897 0.256993 10.4794 2.56174 11.9631 2.47112C16.6196 2.18673 20.9307 5.11239 22.2759 9.60326C23.497 13.6796 21.9633 18.1251 18.5934 20.7061C15.2382 23.2758 10.5309 23.304 6.97822 21.1091C3.39376 18.8946 1.63813 14.3587 2.53344 10.2737C3.54224 5.67074 7.89188 2.30706 12.5784 2.30412C14.0612 2.30319 14.0637 -0.000930582 12.5784 2.81976e-07Z" fill="#2334BA"/>
<path d="M6.55204 16.6977C8.08861 18.2633 10.2199 19.1508 12.4077 19.2125C14.7026 19.2773 16.8847 18.3358 18.4774 16.6978C19.5118 15.634 17.884 14.003 16.8479 15.0685C15.6547 16.2957 14.1106 16.9564 12.4077 16.9084C10.8288 16.8638 9.29598 16.2039 8.18157 15.0685C7.14111 14.0084 5.51197 15.6381 6.55204 16.6977Z" fill="#2334BA"/>
<path d="M8.604 7.41028C8.36895 7.47025 8.17961 7.59316 8.00514 7.75756C7.92387 7.83413 7.85199 7.9277 7.79824 8.02605C7.7693 8.079 7.75403 8.12426 7.7274 8.18734C7.7084 8.23236 7.67289 8.30179 7.65692 8.35889C7.62451 8.47482 7.60541 8.59939 7.60736 8.71878C7.60756 8.731 7.6084 8.74258 7.60911 8.75483C7.61399 8.83877 7.63067 8.99869 7.65348 9.07884C7.68344 9.18408 7.73511 9.30306 7.7859 9.39917C7.84238 9.50603 7.92221 9.60258 8.00441 9.69002C8.1029 9.7948 8.22164 9.8893 8.35247 9.95005C8.45476 9.99756 8.56564 10.0549 8.67618 10.0817C8.73499 10.096 8.80472 10.101 8.85921 10.1083C8.91848 10.1163 8.99195 10.1311 9.05686 10.1325C9.21489 10.136 9.38029 10.1129 9.53053 10.0623C9.66249 10.0179 9.83169 9.95328 9.95711 9.8697C10.2015 9.7068 10.4438 9.49665 10.5718 9.22537C10.6857 8.98403 10.755 8.79505 10.752 8.52021C10.7514 8.46605 10.7327 8.36723 10.7298 8.34574C10.7231 8.29627 10.7174 8.21921 10.7034 8.16096C10.6748 8.0417 10.6219 7.92224 10.5611 7.81798C10.554 7.80574 10.5464 7.79467 10.5386 7.78294C10.4863 7.70411 10.4089 7.60324 10.3454 7.53339C10.2668 7.44685 10.1511 7.37087 10.0672 7.30906C10.047 7.29424 10.0276 7.28001 10.0053 7.26825C9.95287 7.24049 9.88982 7.21779 9.83913 7.1964C9.78271 7.1726 9.71914 7.14085 9.6573 7.12263C9.35433 7.03335 8.99514 7.04807 8.69409 7.13582C8.66536 7.14419 8.63749 7.15451 8.60966 7.16543C8.49726 7.20951 8.38088 7.2534 8.27378 7.31003C8.25085 7.32216 8.22865 7.33562 8.20734 7.3504C8.10714 7.4199 8.00356 7.49616 7.91349 7.57866C7.89148 7.59883 7.87228 7.62094 7.85335 7.64391C7.78047 7.73235 7.70059 7.82425 7.64205 7.92349C7.56451 8.05494 7.49883 8.20413 7.46871 8.35511C7.44867 8.45556 7.43195 8.58134 7.42464 8.68332C7.42358 8.6981 7.42238 8.7125 7.42249 8.72739C7.42333 8.84434 7.4464 8.97433 7.4684 9.08843C7.48291 9.16371 7.5153 9.22495 7.54618 9.2981C7.57583 9.36837 7.5997 9.43948 7.64057 9.50349C7.76511 9.69853 7.84955 9.7822 8.01581 9.91064C8.19764 10.0511 8.29176 10.0981 8.52581 10.1864C8.62107 10.2224 8.71018 10.2304 8.81329 10.2442C8.93139 10.2601 9.03165 10.277 9.1482 10.2638C9.30446 10.2462 9.46644 10.2327 9.6175 10.1847C9.77413 10.1349 9.92509 10.0643 10.0749 9.99773C10.1823 9.95001 10.2898 9.89889 10.3862 9.83105C10.501 9.75023 10.6215 9.66616 10.7214 9.56612C10.7722 9.51533 10.814 9.45397 10.8573 9.398C10.9002 9.34248 10.9551 9.2822 10.9889 9.217C11.1118 8.98 11.1689 8.77423 11.1845 8.50778C11.1936 8.35379 11.173 8.1908 11.1193 8.04611C11.0248 7.79179 10.936 7.62409 10.7464 7.42209C10.6427 7.31158 10.516 7.21389 10.382 7.14291C10.2527 7.07445 10.1072 7.00326 9.96016 6.97486C9.83402 6.9505 9.69967 6.93035 9.57104 6.92406C9.53186 6.92215 9.49261 6.92363 9.45361 6.92764C9.28254 6.94523 9.10691 6.96282 8.94094 7.0115C8.85992 7.03526 8.78089 7.06513 8.70204 7.09519C8.5521 7.13084 8.42148 7.19957 8.3102 7.3014C8.18476 7.38263 8.08583 7.49038 8.01343 7.62463C7.92922 7.75687 7.88365 7.89965 7.87669 8.05297C7.84239 8.2061 7.84925 8.35923 7.89727 8.51236C7.9875 8.79112 8.16027 9.06008 8.4268 9.20087L8.70205 9.31701C8.90626 9.37188 9.11047 9.37188 9.31468 9.31701C9.44728 9.26645 9.58033 9.21803 9.72096 9.19541L9.41465 9.23656C9.48464 9.22725 9.55319 9.22522 9.62345 9.23282L9.31713 9.19167C9.36576 9.19898 9.41103 9.2118 9.45649 9.23049L9.18124 9.11436C9.21953 9.13186 9.25489 9.15232 9.28905 9.17697L9.05585 8.99683C9.08832 9.02234 9.11696 9.04996 9.14311 9.08197L8.96294 8.84881C8.98291 8.8758 8.99935 8.90331 9.01325 8.93384L8.89709 8.65864C8.90674 8.6835 8.9138 8.70789 8.91881 8.73408L8.87765 8.42782C8.88193 8.46158 8.8818 8.49355 8.87763 8.52726L8.91878 8.22099C8.91411 8.24649 8.90757 8.27043 8.89868 8.29477L9.01484 8.01957C8.99958 8.05528 8.98064 8.08729 8.95749 8.11849L9.13766 7.88532C9.10377 7.92735 9.06544 7.96352 9.0232 7.99705L9.2564 7.81691C9.13718 7.90693 9.00057 7.9705 8.86378 8.029L9.13903 7.91286C9.04272 7.95269 8.94515 7.98505 8.84187 8.00087L9.14819 7.95972C9.08714 7.96708 9.02745 7.96862 8.96644 7.96067L9.27276 8.00183C9.2262 7.9941 9.18229 7.982 9.13843 7.96459L9.41368 8.08073C9.37104 8.06195 9.33247 8.03959 9.29553 8.01117L9.52873 8.19131C9.50387 8.17037 9.48189 8.14815 9.46149 8.12288L9.64166 8.35605C9.62249 8.32962 9.60707 8.30271 9.59412 8.27278L9.71027 8.54798C9.70026 8.52064 9.69345 8.49378 9.68882 8.46504L9.72997 8.7713C9.7263 8.73397 9.72711 8.69849 9.73204 8.66138L9.69088 8.96764C9.69784 8.93054 9.70819 8.89591 9.72245 8.86101L9.6063 9.13621C9.6223 9.10191 9.64078 9.07057 9.66303 9.04001L9.48286 9.27317C9.51104 9.23819 9.54192 9.20769 9.57682 9.17939L9.34362 9.35953C9.39164 9.32356 9.44249 9.29492 9.49752 9.27111L9.22227 9.38725C9.28848 9.36087 9.3561 9.34276 9.42651 9.33185L9.1202 9.373C9.17233 9.36677 9.22301 9.36539 9.27534 9.37031L8.96903 9.32916C9.01064 9.33522 9.04973 9.3448 9.08886 9.36015L8.81361 9.24401C8.84632 9.25904 8.87555 9.27667 8.90401 9.29861L8.67081 9.11847C8.69235 9.13717 8.71117 9.15669 8.7289 9.17904L8.54873 8.94587C8.56088 8.96344 8.57096 8.98038 8.58054 8.99947L8.46439 8.72427C8.47541 8.75097 8.48254 8.77659 8.48701 8.80512L8.44585 8.49886C8.44751 8.52069 8.44749 8.54055 8.44577 8.56237L8.48693 8.2561C8.48258 8.2845 8.47566 8.31067 8.46574 8.33763L8.5819 8.06242C8.56711 8.09622 8.54934 8.12665 8.52792 8.15662L8.70809 7.92346C8.6752 7.96535 8.63873 8.00119 8.59708 8.03435L8.83029 7.8542C8.77896 7.89221 8.72444 7.92294 8.66565 7.94789L8.9409 7.83176C8.90224 7.8464 8.86392 7.8574 8.82325 7.8647L9.12957 7.82355C9.08997 7.82849 9.05195 7.82939 9.01234 7.82474L9.31865 7.8659C9.2915 7.86102 9.26616 7.85404 9.24032 7.84438L9.51557 7.96051C9.49042 7.94935 9.46761 7.93663 9.44498 7.92099L9.67818 8.10113C9.65685 8.08421 9.63859 8.06645 9.62131 8.04541L9.80148 8.27857C9.78969 8.26172 9.78035 8.24579 9.77144 8.22725L9.8876 8.50246C9.88064 8.48409 9.87593 8.46785 9.87243 8.44857L9.91359 8.75483C9.91189 8.73616 9.9118 8.71941 9.91322 8.70071L9.87207 9.00697C9.87591 8.98248 9.88208 8.9604 9.89149 8.93746L9.77533 9.21267C9.78367 9.19614 9.79232 9.18193 9.80322 9.16698L9.62305 9.40014C9.63509 9.38631 9.64663 9.37519 9.66099 9.36379L9.42779 9.54394C9.43727 9.53711 9.44736 9.53133 9.45805 9.5266L9.1828 9.64273C9.19367 9.63793 9.20494 9.63438 9.2166 9.63209C9.36654 9.59645 9.49716 9.52771 9.60845 9.42588C9.73389 9.34465 9.83281 9.2369 9.90522 9.10265C9.98942 8.97041 10.035 8.82764 10.042 8.67431C10.0763 8.52118 10.0694 8.36805 10.0214 8.21492C9.93115 7.93616 9.75837 7.66721 9.49184 7.52641C9.21451 7.37991 8.91265 7.33152 8.604 7.41028Z" fill="#2334BA"/>
<path d="M15.1 7.41028C14.8649 7.47025 14.6756 7.59316 14.5011 7.75756C14.4198 7.83413 14.348 7.9277 14.2942 8.02605C14.2653 8.079 14.25 8.12426 14.2234 8.18734C14.2044 8.23236 14.1689 8.30179 14.1529 8.35889C14.1205 8.47482 14.1014 8.59939 14.1033 8.71878C14.1035 8.731 14.1044 8.74258 14.1051 8.75483C14.11 8.83877 14.1266 8.99869 14.1495 9.07884C14.1794 9.18408 14.2311 9.30306 14.2819 9.39917C14.3384 9.50603 14.4182 9.60258 14.5004 9.69002C14.5989 9.7948 14.7176 9.8893 14.8484 9.95005C14.9507 9.99756 15.0616 10.0549 15.1722 10.0817C15.231 10.096 15.3007 10.101 15.3552 10.1083C15.4145 10.1163 15.4879 10.1311 15.5528 10.1325C15.7109 10.136 15.8763 10.1129 16.0265 10.0623C16.1585 10.0179 16.3277 9.95328 16.4531 9.8697C16.6975 9.7068 16.9397 9.49665 17.0678 9.22537C17.1817 8.98403 17.251 8.79505 17.248 8.52021C17.2474 8.46605 17.2287 8.36723 17.2258 8.34574C17.2191 8.29627 17.2134 8.21921 17.1994 8.16096C17.1707 8.0417 17.1179 7.92224 17.0571 7.81798C17.0499 7.80574 17.0424 7.79467 17.0346 7.78294C16.9823 7.70411 16.9049 7.60324 16.8414 7.53339C16.7628 7.44685 16.647 7.37087 16.5631 7.30906C16.543 7.29424 16.5235 7.28001 16.5013 7.26825C16.4488 7.24049 16.3858 7.21779 16.3351 7.1964C16.2787 7.1726 16.2151 7.14085 16.1533 7.12263C15.8503 7.03335 15.4911 7.04807 15.1901 7.13582C15.1613 7.14419 15.1335 7.15451 15.1056 7.16543C14.9932 7.20951 14.8768 7.2534 14.7698 7.31003C14.7468 7.32216 14.7246 7.33562 14.7033 7.3504C14.6031 7.4199 14.4995 7.49616 14.4095 7.57866C14.3875 7.59883 14.3682 7.62094 14.3493 7.64391C14.2764 7.73235 14.1966 7.82425 14.138 7.92349C14.0605 8.05494 13.9948 8.20413 13.9647 8.35511C13.9446 8.45556 13.9279 8.58134 13.9206 8.68332C13.9195 8.6981 13.9184 8.7125 13.9185 8.72739C13.9193 8.84434 13.9424 8.97433 13.9644 9.08843C13.9789 9.16371 14.0113 9.22495 14.0422 9.2981C14.0718 9.36837 14.0957 9.43948 14.1365 9.50349C14.2611 9.69853 14.3455 9.7822 14.5118 9.91064C14.6936 10.0511 14.7877 10.0981 15.0218 10.1864C15.117 10.2224 15.2062 10.2304 15.3093 10.2442C15.4274 10.2601 15.5276 10.277 15.6442 10.2638C15.8004 10.2462 15.9624 10.2327 16.1135 10.1847C16.2701 10.1349 16.4211 10.0643 16.5708 9.99773C16.6782 9.95001 16.7857 9.89889 16.8821 9.83105C16.997 9.75023 17.1175 9.66616 17.2174 9.56612C17.2681 9.51533 17.31 9.45397 17.3532 9.398C17.3961 9.34248 17.4511 9.2822 17.4849 9.217C17.6078 8.98 17.6649 8.77423 17.6805 8.50778C17.6895 8.35379 17.669 8.1908 17.6152 8.04611C17.5208 7.79179 17.4319 7.62409 17.2424 7.42209C17.1387 7.31158 17.012 7.21389 16.878 7.14291C16.7487 7.07445 16.6032 7.00326 16.4561 6.97486C16.33 6.9505 16.1956 6.93035 16.067 6.92406C16.0278 6.92215 15.9886 6.92363 15.9496 6.92764C15.7785 6.94523 15.6029 6.96282 15.4369 7.0115C15.3559 7.03526 15.2769 7.06513 15.198 7.09519C15.0481 7.13084 14.9175 7.19957 14.8062 7.3014C14.6807 7.38263 14.5818 7.49038 14.5094 7.62463C14.4252 7.75687 14.3796 7.89965 14.3727 8.05297C14.3384 8.2061 14.3452 8.35923 14.3932 8.51236C14.4835 8.79112 14.6562 9.06008 14.9228 9.20087L15.198 9.31701C15.4022 9.37188 15.6064 9.37188 15.8107 9.31701C15.9433 9.26645 16.0763 9.21803 16.2169 9.19541L15.9106 9.23656C15.9806 9.22725 16.0492 9.22522 16.1194 9.23282L15.8131 9.19167C15.8617 9.19898 15.907 9.2118 15.9525 9.23049L15.6772 9.11436C15.7155 9.13186 15.7509 9.15232 15.785 9.17697L15.5518 8.99683C15.5843 9.02234 15.6129 9.04996 15.6391 9.08197L15.4589 8.84881C15.4789 8.8758 15.4953 8.90331 15.5092 8.93384L15.3931 8.65864C15.4027 8.6835 15.4098 8.70789 15.4148 8.73408L15.3736 8.42782C15.3779 8.46158 15.3778 8.49355 15.3736 8.52726L15.4148 8.22099C15.4101 8.24649 15.4035 8.27043 15.3947 8.29477L15.5108 8.01957C15.4956 8.05528 15.4766 8.08729 15.4535 8.11849L15.6336 7.88532C15.5997 7.92735 15.5614 7.96352 15.5192 7.99705L15.7524 7.81691C15.6331 7.90693 15.4965 7.9705 15.3598 8.029L15.635 7.91286C15.5387 7.95269 15.4411 7.98505 15.3378 8.00087L15.6442 7.95972C15.5831 7.96708 15.5234 7.96862 15.4624 7.96067L15.7687 8.00183C15.7222 7.9941 15.6783 7.982 15.6344 7.96459L15.9097 8.08073C15.867 8.06195 15.8284 8.03959 15.7915 8.01117L16.0247 8.19131C15.9998 8.17037 15.9779 8.14815 15.9575 8.12288L16.1376 8.35605C16.1185 8.32962 16.103 8.30271 16.0901 8.27278L16.2062 8.54798C16.1962 8.52064 16.1894 8.49378 16.1848 8.46504L16.2259 8.7713C16.2223 8.73397 16.2231 8.69849 16.228 8.66138L16.1869 8.96764C16.1938 8.93054 16.2042 8.89591 16.2184 8.86101L16.1023 9.13621C16.1183 9.10191 16.1368 9.07057 16.159 9.04001L15.9788 9.27317C16.007 9.23819 16.0379 9.20769 16.0728 9.17939L15.8396 9.35953C15.8876 9.32356 15.9385 9.29492 15.9935 9.27111L15.7182 9.38725C15.7844 9.36087 15.8521 9.34276 15.9225 9.33185L15.6162 9.373C15.6683 9.36677 15.719 9.36539 15.7713 9.37031L15.465 9.32916C15.5066 9.33522 15.5457 9.3448 15.5848 9.36015L15.3096 9.24401C15.3423 9.25904 15.3715 9.27667 15.4 9.29861L15.1668 9.11847C15.1883 9.13717 15.2071 9.15669 15.2249 9.17904L15.0447 8.94587C15.0569 8.96344 15.0669 8.98038 15.0765 8.99947L14.9604 8.72427C14.9714 8.75097 14.9785 8.77659 14.983 8.80512L14.9418 8.49886C14.9435 8.52069 14.9435 8.54055 14.9417 8.56237L14.9829 8.2561C14.9786 8.2845 14.9716 8.31067 14.9617 8.33763L15.0779 8.06242C15.0631 8.09622 15.0453 8.12665 15.0239 8.15662L15.2041 7.92346C15.1712 7.96535 15.1347 8.00119 15.0931 8.03435L15.3263 7.8542C15.2749 7.89221 15.2204 7.92294 15.1616 7.94789L15.4369 7.83176C15.3982 7.8464 15.3599 7.8574 15.3192 7.8647L15.6255 7.82355C15.5859 7.82849 15.5479 7.82939 15.5083 7.82474L15.8146 7.8659C15.7875 7.86102 15.7621 7.85404 15.7363 7.84438L16.0115 7.96051C15.9864 7.94935 15.9636 7.93663 15.9409 7.92099L16.1741 8.10113C16.1528 8.08421 16.1346 8.06645 16.1173 8.04541L16.2975 8.27857C16.2857 8.26172 16.2763 8.24579 16.2674 8.22725L16.3836 8.50246C16.3766 8.48409 16.3719 8.46785 16.3684 8.44857L16.4096 8.75483C16.4079 8.73616 16.4078 8.71941 16.4092 8.70071L16.368 9.00697C16.3719 8.98248 16.3781 8.9604 16.3875 8.93746L16.2713 9.21267C16.2796 9.19614 16.2883 9.18193 16.2992 9.16698L16.119 9.40014C16.1311 9.38631 16.1426 9.37519 16.157 9.36379L15.9238 9.54394C15.9332 9.53711 15.9433 9.53133 15.954 9.5266L15.6788 9.64273C15.6896 9.63793 15.7009 9.63438 15.7126 9.63209C15.8625 9.59645 15.9931 9.52771 16.1044 9.42588C16.2299 9.34465 16.3288 9.2369 16.4012 9.10265C16.4854 8.97041 16.531 8.82764 16.5379 8.67431C16.5722 8.52118 16.5654 8.36805 16.5173 8.21492C16.4271 7.93616 16.2543 7.66721 15.9878 7.52641C15.7105 7.37991 15.4086 7.33152 15.1 7.41028Z" fill="#2334BA"/>
</svg>