<svg width="37" height="38" viewBox="0 0 37 38" fill="none" xmlns="http://www.w3.org/2000/svg">
<path d="M11.2572 2.62729C11.3266 0.897753 13.4112 0.0670421 14.6511 1.27482L21.3041 7.75541C21.8155 8.25355 22.5536 8.44132 23.2409 8.24811L32.1819 5.73452C33.8483 5.26607 35.2825 6.99194 34.517 8.54439L30.4095 16.8744C30.0937 17.5147 30.1433 18.2747 30.5394 18.8686L35.6929 26.5953C36.6533 28.0354 35.4551 29.9327 33.7421 29.6844L24.5505 28.352C23.844 28.2496 23.1365 28.5316 22.694 29.0919L16.938 36.3808C15.8653 37.7392 13.6905 37.186 13.3973 35.4801L11.8241 26.3266C11.7032 25.623 11.2164 25.0373 10.5468 24.7896L1.83591 21.5677C0.212467 20.9673 0.0665938 18.728 1.59841 17.922L9.8177 13.5972C10.4495 13.2648 10.8562 12.6208 10.8848 11.9075L11.2572 2.62729Z" fill="#E6D854"/>
</svg>