<svg width="206" height="101" viewBox="0 0 206 101" fill="none" xmlns="http://www.w3.org/2000/svg">
<g clip-path="url(#clip0_87_2308)">
<path d="M0 91.1426C0 91.3473 0.232058 91.5107 0.522672 91.5107H205.477C205.766 91.5107 206 91.3473 206 91.1426C206 90.9378 205.768 90.7744 205.477 90.7744H0.522672C0.234226 90.7744 0 90.9378 0 91.1426Z" fill="#2F2E43"/>
<path d="M171.157 91.6633H35.2771V3.77084C35.2771 1.69263 36.9601 0 39.0312 0H167.403C169.472 0 171.157 1.69045 171.157 3.77084V91.6633Z" fill="#2F2E41"/>
<path d="M182.467 101H23.6287C23.08 101 22.631 100.658 22.4814 100.127C22.3339 99.5972 22.5399 99.0679 23.0084 98.7825L35.3899 91.1951H171.202L171.241 91.219L183.109 98.7934C183.566 99.0853 183.766 99.6125 183.614 100.137C183.462 100.66 183.013 101 182.471 101H182.467Z" fill="#DFDFDF"/>
<path d="M167.437 5.60278H38.8404V85.9057H167.437V5.60278Z" fill="white"/>
<path d="M172.395 96.177H34.5029L41.3193 90.6221H165.889L172.395 96.177Z" fill="#2F2E41"/>
<path d="M135.832 99.9108H70.4479L72.9268 96.177H133.353L135.832 99.9108Z" fill="#2F2E41"/>
<path d="M141.681 37.3576H134.869C134.277 37.3576 133.795 36.8739 133.795 36.2792C133.795 35.6845 134.277 35.2009 134.869 35.2009H141.681C142.273 35.2009 142.755 35.6845 142.755 36.2792C142.755 36.8739 142.273 37.3576 141.681 37.3576Z" fill="#DFDFDF"/>
<path d="M149.515 37.3576H146.335C145.743 37.3576 145.262 36.8739 145.262 36.2792C145.262 35.6845 145.743 35.2009 146.335 35.2009H149.515C150.107 35.2009 150.588 35.6845 150.588 36.2792C150.588 36.8739 150.107 37.3576 149.515 37.3576Z" fill="#DFDFDF"/>
<path d="M73.4777 38.181H52.7443C51.686 38.181 50.825 37.3162 50.825 36.2531C50.825 35.19 51.686 34.3252 52.7443 34.3252H73.4777C74.5361 34.3252 75.3971 35.19 75.3971 36.2531C75.3971 37.3162 74.5361 38.181 73.4777 38.181Z" fill="#6C63FF"/>
<path d="M62.237 43.3244H52.2455C51.6014 43.3244 51.0744 42.7972 51.0744 42.148C51.0744 41.4989 51.5992 40.9717 52.2455 40.9717H62.237C62.8811 40.9717 63.4081 41.4989 63.4081 42.148C63.4081 42.7972 62.8833 43.3244 62.237 43.3244Z" fill="#DFDFDF"/>
<path d="M117.319 47.9665H51.9939C51.3498 47.9665 50.8228 47.4393 50.8228 46.7901C50.8228 46.1409 51.3477 45.6138 51.9939 45.6138H117.319C117.963 45.6138 118.49 46.1409 118.49 46.7901C118.49 47.4393 117.966 47.9665 117.319 47.9665Z" fill="#DFDFDF"/>
<path d="M111.7 51.1034H51.9939C51.3498 51.1034 50.8228 50.5762 50.8228 49.9271C50.8228 49.2779 51.3477 48.7507 51.9939 48.7507H111.698C112.342 48.7507 112.869 49.2779 112.869 49.9271C112.869 50.5762 112.344 51.1034 111.698 51.1034H111.7Z" fill="#DFDFDF"/>
<path d="M181.903 33.151L178.71 34.2054V29.5872H181.608L181.903 33.151Z" fill="#F2A7AA"/>
<path d="M179.105 30.8658C180.862 30.8658 182.287 29.4351 182.287 27.6701C182.287 25.9051 180.862 24.4744 179.105 24.4744C177.348 24.4744 175.924 25.9051 175.924 27.6701C175.924 29.4351 177.348 30.8658 179.105 30.8658Z" fill="#F2A7AA"/>
<path d="M179.979 27.3544C179.446 27.3392 179.097 26.7968 178.89 26.3044C178.684 25.8099 178.47 25.2435 177.977 25.0388C177.574 24.871 176.861 25.9973 176.542 25.6988C176.21 25.3873 176.533 23.7797 176.887 23.4921C177.24 23.2045 177.722 23.1479 178.177 23.1261C179.285 23.0738 180.402 23.1653 181.489 23.3919C182.161 23.5335 182.853 23.7448 183.339 24.2328C183.952 24.8514 184.111 25.786 184.154 26.6595C184.2 27.5527 184.148 28.4894 183.716 29.2693C183.284 30.0513 182.378 30.6286 181.51 30.4282C181.424 29.9533 181.51 29.4675 181.545 28.9861C181.578 28.5046 181.545 27.9862 181.252 27.6028C180.959 27.2194 180.335 27.0691 179.994 27.4089" fill="#36344E"/>
<path d="M183.894 28.4611C184.213 28.2258 184.592 28.0319 184.985 28.0798C185.408 28.1321 185.765 28.4828 185.874 28.8967C185.982 29.3106 185.861 29.7681 185.598 30.1058C185.336 30.4434 184.948 30.6678 184.536 30.7811C184.297 30.8464 184.037 30.8726 183.809 30.7745C183.475 30.6308 183.295 30.1994 183.425 29.8596" fill="#36344E"/>
<path d="M180.849 84.5225H177.858V88.7834H180.849V84.5225Z" fill="#F2A7AA"/>
<path d="M174.945 91.3649C174.631 91.3649 174.351 91.3561 174.141 91.3365C173.347 91.2625 172.588 90.6743 172.206 90.3301C172.035 90.1754 171.981 89.9293 172.07 89.7158C172.133 89.5633 172.261 89.45 172.419 89.4043L174.518 88.8009L177.917 86.4961L177.954 86.5636C177.969 86.5898 178.301 87.1932 178.413 87.6006C178.457 87.7552 178.444 87.8859 178.381 87.9861C178.335 88.0558 178.275 88.0951 178.222 88.119C178.283 88.1844 178.476 88.3151 179.07 88.4109C179.936 88.5503 180.12 87.6463 180.127 87.6093L180.133 87.5788L180.159 87.5613C180.571 87.2934 180.825 87.1736 180.914 87.1997C180.968 87.2172 181.059 87.2433 181.306 89.7027C181.33 89.779 181.504 90.3454 181.387 90.8856C181.259 91.4738 178.7 91.2712 178.188 91.2254C178.173 91.2254 176.258 91.3649 174.943 91.3649H174.945Z" fill="#36344E"/>
<path d="M189.364 81.1716L186.826 82.7612L189.071 86.3767L191.608 84.787L189.364 81.1716Z" fill="#F2A7AA"/>
<path d="M185.995 90.7811C185.644 90.7811 185.321 90.7397 185.091 90.6983C184.865 90.6591 184.688 90.4783 184.651 90.2496C184.625 90.0862 184.672 89.9228 184.783 89.7987L186.247 88.1714L187.917 84.4093L187.984 84.4463C188.01 84.4594 188.611 84.7948 188.921 85.0824C189.038 85.1913 189.097 85.3068 189.094 85.4266C189.094 85.5094 189.062 85.5769 189.032 85.6226C189.118 85.6444 189.35 85.6531 189.906 85.4179C190.715 85.0759 190.394 84.211 190.381 84.174L190.37 84.1457L190.383 84.1174C190.593 83.6708 190.743 83.4333 190.832 83.4094C190.886 83.3941 190.979 83.3702 192.482 85.3242C192.543 85.3765 192.987 85.7642 193.174 86.2871C193.376 86.8534 191.096 88.0429 190.639 88.276C190.623 88.2868 188.24 90.0274 187.262 90.5219C186.874 90.718 186.414 90.7789 185.995 90.7789V90.7811Z" fill="#36344E"/>
<path d="M183.052 48.8792H174.679L173.92 56.704L177.244 85.6138H181.519L179.81 68.9162L186.744 83.9908L190.543 81.3201L185.128 67.2475C185.128 67.2475 187.062 54.9874 185.542 51.9333C184.022 48.8791 183.052 48.8792 183.052 48.8792Z" fill="#36344E"/>
<path d="M187.216 49.3564H173.917L177.908 32.0881H183.701L187.216 49.3564Z" fill="#6C63FF"/>
<path d="M170.614 31.7461C170.402 30.6961 170.79 29.7354 171.482 29.6025C172.174 29.4697 172.905 30.2125 173.117 31.2647C173.208 31.6829 173.193 32.1164 173.076 32.5303L173.917 36.9939L171.744 37.3381L171.146 32.9028C170.877 32.5652 170.695 32.1687 170.614 31.7461Z" fill="#F2A7AA"/>
<path d="M183.56 32.0881H178.45L175.006 39.009L173.707 33.8243L170.853 34.1293C170.853 34.1293 171.528 44.2611 174.481 43.9191C177.433 43.5771 184.319 34.4474 183.562 32.0903L183.56 32.0881Z" fill="#6C63FF"/>
<path d="M189.268 58.4055C189.481 59.4555 189.092 60.4161 188.4 60.549C187.709 60.6819 186.978 59.9391 186.765 58.8869C186.674 58.4686 186.689 58.0351 186.806 57.6212L185.965 53.1577L188.138 52.8135L188.737 57.2487C189.006 57.5864 189.188 57.9829 189.268 58.4055Z" fill="#F2A7AA"/>
<path d="M180.647 32.0881C180.647 32.0881 183.551 31.964 183.701 32.0881C184.492 32.7395 189.142 56.1945 189.142 56.1945H186.197L180.645 32.0881H180.647Z" fill="#6C63FF"/>
</g>
<defs>
<clipPath id="clip0_87_2308">
<rect width="206" height="101" fill="white"/>
</clipPath>
</defs>
</svg>