<svg width="131" height="86" viewBox="0 0 131 86" fill="none" xmlns="http://www.w3.org/2000/svg">
<g clip-path="url(#clip0_13_162)">
<path d="M85.4968 37.5513C85.3458 38.3429 85.1647 39.1264 84.9536 39.9019C84.9307 39.9919 84.9051 40.0806 84.8795 40.1707H81.9428C81.6927 40.1709 81.4529 40.2701 81.276 40.4465C81.0991 40.6229 80.9996 40.862 80.9994 41.1114V49.4602C80.9104 49.6255 80.8201 49.7894 80.7298 49.9534C80.2635 50.8001 79.7783 51.6374 79.2823 52.4639C71.1951 65.8977 59.9155 77.1393 46.4395 85.1963L47.2374 83.4008C46.9449 83.3806 46.6511 83.3604 46.3587 83.3403C39.9906 82.9062 33.601 82.425 27.3826 80.9978C20.8771 79.5046 14.5131 76.9148 9.41466 72.6208C4.3148 68.3255 0.576232 62.1916 0.0573422 55.5551C-0.11568 53.2743 0.115637 50.9809 0.740684 48.7801C1.93607 44.5439 4.54802 40.7324 8.31628 38.4773C14.2355 34.9359 21.9567 35.6576 28.1966 38.6036C34.4353 41.5482 39.5135 46.4228 44.4719 51.2127C39.4657 42.652 32.4955 35.3968 24.1332 30.0425C21.3623 28.2738 18.4216 26.6987 16.0657 24.4072C13.7112 22.1171 11.974 18.9064 12.3905 15.6526C12.8635 11.9621 15.8946 9.16125 18.931 7.0015C20.1439 6.13867 21.396 5.32019 22.6871 4.56757C26.33 2.43872 30.2708 0.832677 34.4326 0.237299C40.0701 -0.570426 46.1592 0.655274 50.4814 4.35388C55.3507 8.52153 57.348 15.2427 57.158 21.6723C60.158 17.3232 64.7848 13.9942 70.01 13.853C75.4346 13.7079 80.591 17.1256 83.308 21.8107C86.0238 26.4944 86.5116 32.2359 85.4968 37.5513Z" fill="#E6E6E6"/>
<path d="M51.1754 55.6136C54.3526 55.3345 57.2876 55.0085 60.3664 54.1398C63.3508 53.2976 66.2225 51.8879 68.347 49.5861C70.632 47.1103 71.8655 43.895 72.7358 40.6943C73.221 38.9097 73.6197 37.1003 73.9959 35.2902C74.404 33.3262 74.7667 31.3535 75.0839 29.3722C75.7152 25.4283 76.166 21.4612 76.4361 17.4709C76.4687 16.9865 76.4986 16.502 76.5258 16.0173C76.5427 15.7183 76.0763 15.7192 76.0595 16.0173C75.8376 19.9506 75.4385 23.8686 74.862 27.7713C74.2932 31.6056 73.5654 35.4234 72.642 39.189C71.8597 42.3791 70.8469 45.6189 68.8406 48.2745C66.9593 50.7648 64.2419 52.3922 61.3079 53.3652C58.3223 54.3552 55.1743 54.7505 52.0544 55.0445C51.6717 55.0805 51.5584 55.1149 51.1754 55.1485C50.8788 55.1746 50.876 55.6398 51.1754 55.6136Z" fill="white"/>
<path d="M1.00971 49.1232C5.01835 49.3449 8.98622 50.0422 12.8294 51.2002C16.6743 52.3558 20.369 53.9596 23.8372 55.9782C27.1883 57.9303 30.2993 60.2661 33.1069 62.9381C35.8317 65.5328 38.2601 68.4203 40.3479 71.5478C42.4451 74.6832 44.1831 78.0432 45.5294 81.5648C45.6936 81.9959 45.8517 82.4291 46.0038 82.8645C46.102 83.1453 46.5527 83.0245 46.4534 82.7409C45.1939 79.1449 43.5335 75.7012 41.5034 72.4747C39.4737 69.2479 37.0917 66.2554 34.4008 63.5519C31.6669 60.8065 28.6242 58.3851 25.3332 56.3358C18.4233 52.0435 10.5909 49.4469 2.4792 48.7591C1.98989 48.7182 1.50006 48.6846 1.00971 48.6582C0.709844 48.6418 0.710759 49.1069 1.00971 49.1232Z" fill="white"/>
<path d="M22.8128 5.11267C25.3759 5.92554 27.8053 7.10941 30.0234 8.62637C32.2899 10.187 34.3569 12.0176 36.1788 14.0775C38.0986 16.2445 39.8055 18.5902 41.2758 21.0824C42.8355 23.7139 44.1903 26.4607 45.3285 29.2989C46.5005 32.2126 47.4862 35.1975 48.2798 38.2356C49.0864 41.3097 49.7165 44.4271 50.167 47.5728C50.6151 50.6851 50.8863 53.8202 50.9793 56.9631C51.073 59.9683 50.9839 62.9764 50.7125 65.9709C50.4643 68.7646 50.011 71.5364 49.3563 74.264C48.7748 76.7275 47.9554 79.1291 46.9095 81.435C46.6672 81.9583 46.4101 82.4744 46.1383 82.9833C45.9972 83.2474 46.3996 83.4826 46.5409 83.218C47.6968 81.0155 48.6197 78.6991 49.2949 76.3061C50.0524 73.6422 50.6015 70.9238 50.9372 68.1752C51.3093 65.1931 51.4906 62.1905 51.4798 59.1854C51.4731 56.0284 51.2847 52.8744 50.9154 49.739C50.546 46.5644 49.9974 43.4131 49.2725 40.3C48.5493 37.1819 47.6319 34.1117 46.5257 31.1074C45.4595 28.199 44.1829 25.3717 42.706 22.6477C41.2993 20.0484 39.6601 17.5811 37.8082 15.2759C36.0494 13.081 34.0416 11.0968 31.8247 9.36295C29.6871 7.69605 27.325 6.33731 24.8077 5.32667C24.1926 5.08251 23.569 4.86171 22.9368 4.66426C22.6499 4.57424 22.5271 5.02302 22.8128 5.11267Z" fill="white"/>
<path d="M50.473 86C68.8952 86 83.8294 85.3983 83.8294 84.656C83.8294 83.9138 68.8952 83.3121 50.473 83.3121C32.0508 83.3121 17.1167 83.9138 17.1167 84.656C17.1167 85.3983 32.0508 86 50.473 86Z" fill="#E6E6E6"/>
<path d="M79.9438 42.5615C79.9272 42.634 79.9164 42.7077 79.9115 42.7819L74.122 46.1125L72.7148 45.3047L71.2146 47.2632L74.225 49.4028L80.83 44.2067C81.0994 44.3061 81.3927 44.3214 81.671 44.2505C81.9493 44.1796 82.1994 44.0259 82.388 43.8098C82.5765 43.5937 82.6947 43.3255 82.7267 43.0409C82.7586 42.7562 82.703 42.4686 82.567 42.2162C82.4311 41.9639 82.2214 41.7588 81.9657 41.6282C81.7101 41.4977 81.4206 41.4478 81.1358 41.4853C80.851 41.5228 80.5845 41.6458 80.3715 41.8381C80.1586 42.0303 80.0094 42.2826 79.9438 42.5615Z" fill="#FFB8B8"/>
<path d="M66.7586 44.6049L71.3172 47.8448L73.3561 45.2957L68.9247 41.75C68.7341 41.5974 68.5142 41.4853 68.2786 41.4204C68.0429 41.3556 67.7965 41.3394 67.5544 41.3729C67.3123 41.4063 67.0796 41.4887 66.8705 41.615C66.6614 41.7413 66.4804 41.9088 66.3385 42.1073C66.0621 42.4941 65.9511 42.9745 66.0299 43.4429C66.1087 43.9113 66.3708 44.3292 66.7586 44.6049Z" fill="#6C63FF"/>
<path d="M57.3484 81.5731L58.9468 81.9907L61.3228 76.0418L58.9639 75.4253L57.3484 81.5731Z" fill="#FFB8B8"/>
<path d="M61.6404 84.2762L56.6171 82.9636L57.1256 81.0282L60.2081 81.8337C60.7228 81.9682 61.1629 82.3011 61.4315 82.7591C61.7001 83.2172 61.7753 83.7629 61.6404 84.2762Z" fill="#2F2E41"/>
<path d="M71.5567 82.708L73.1832 82.4182L72.8366 76.024L70.436 76.4517L71.5567 82.708Z" fill="#FFB8B8"/>
<path d="M76.5901 83.3656L71.4781 84.2762L71.1253 82.3067L74.2622 81.7479C74.5216 81.7017 74.7875 81.7069 75.0449 81.7632C75.3022 81.8195 75.546 81.9258 75.7621 82.076C75.9783 82.2262 76.1627 82.4174 76.3047 82.6387C76.4468 82.86 76.5438 83.107 76.5901 83.3656Z" fill="#2F2E41"/>
<path d="M68.3539 35.6835C68.7547 35.7808 69.0808 36.1881 69.2766 36.6599C69.4573 37.1555 69.5795 37.6703 69.6411 38.194C69.7949 39.1692 69.9427 40.2251 69.6245 41.1283C69.2515 42.187 68.2576 42.7415 67.3955 42.4809C66.5333 42.2204 65.8477 41.2423 65.6134 40.1164C65.4001 38.9787 65.5376 37.8033 66.0075 36.7451C66.2524 36.1891 66.59 35.6761 67.0386 35.4253C67.2587 35.2926 67.5209 35.2479 67.7727 35.3002C68.0244 35.3525 68.247 35.4979 68.3956 35.7072" fill="#2F2E41"/>
<path d="M70.6216 53.3416L73.7183 80.9996L71.1607 81.9681L66.4436 63.4213L59.8764 80.3793L57.0769 80.5344C57.0769 80.5344 60.9179 54.1479 63.7645 53.5483L70.6216 53.3416Z" fill="#2F2E41"/>
<path d="M68.0206 39.2132C69.8488 39.2132 71.3308 37.7353 71.3308 35.9123C71.3308 34.0892 69.8488 32.6114 68.0206 32.6114C66.1925 32.6114 64.7104 34.0892 64.7104 35.9123C64.7104 37.7353 66.1925 39.2132 68.0206 39.2132Z" fill="#FFB8B8"/>
<path d="M69.4414 40.598L65.8643 40.1328C65.8643 40.1328 63.5314 42.9244 63.6869 47.7323C63.8424 52.5402 63.2981 54.0135 63.2981 54.0135L70.7565 54.1479C69.6783 52.6696 74.188 44.1788 69.4414 40.598Z" fill="#6C63FF"/>
<path d="M71.3629 54.8199C71.2883 54.8204 71.2139 54.8268 71.1403 54.839L66.5641 49.9811L67.0307 48.4302L64.7755 47.4221L63.3757 50.8341L69.9597 56.0567C69.9243 56.341 69.9765 56.6292 70.1094 56.8832C70.2423 57.1371 70.4496 57.3447 70.7037 57.4783C70.9577 57.6119 71.2466 57.6652 71.5318 57.6311C71.817 57.597 72.085 57.4771 72.3003 57.2874C72.5155 57.0977 72.6677 56.8472 72.7366 56.5691C72.8056 56.2911 72.788 55.9987 72.6863 55.7308C72.5845 55.4629 72.4034 55.2323 72.167 55.0696C71.9306 54.9069 71.6501 54.8198 71.3629 54.8199Z" fill="#FFB8B8"/>
<path d="M66.3508 42.4881L64.2312 47.6547L67.1862 49.0506L69.6334 43.9374C69.7387 43.7174 69.7978 43.4783 69.8072 43.2348C69.8166 42.9912 69.776 42.7483 69.6879 42.5209C69.5999 42.2935 69.4662 42.0865 69.295 41.9124C69.1239 41.7384 68.919 41.601 68.6927 41.5087C68.4745 41.4197 68.2408 41.3744 68.0049 41.3754C67.7691 41.3764 67.5358 41.4237 67.3183 41.5147C67.1009 41.6056 66.9035 41.7384 66.7375 41.9054C66.5715 42.0724 66.44 42.2704 66.3508 42.4881Z" fill="#6C63FF"/>
<path d="M67.1547 38.9133C67.6734 38.6149 67.7287 37.8951 67.6582 37.3021C67.5877 36.7092 67.47 36.0482 67.8195 35.5633C68.2366 34.9847 69.0747 34.9732 69.7891 34.9543C70.5035 34.9354 71.3735 34.7268 71.5586 34.0384C71.6809 33.5836 71.4192 33.0955 71.0437 32.81C70.6682 32.5245 70.1984 32.3983 69.7418 32.2783C68.7203 32.01 67.6655 31.7394 66.6196 31.8869C65.5836 32.033 64.6469 32.5799 64.0123 33.4094C63.3776 34.239 63.096 35.2843 63.2283 36.3193C63.3976 37.6432 63.6431 38.2214 63.482 38.8051C63.1818 39.8924 61.8875 40.5909 61.8617 41.7184C61.8415 42.6003 62.6227 43.2806 63.3849 43.7284C63.9894 44.0836 64.6419 44.385 65.3385 44.4682C66.0352 44.5513 66.7853 44.3921 67.3043 43.9212C67.9737 43.3139 68.1393 42.2992 67.9473 41.4173C67.7554 40.5354 67.263 39.7522 66.7759 38.9916" fill="#2F2E41"/>
<path d="M129.787 39.9019H81.9427C81.6211 39.9023 81.3129 40.0299 81.0855 40.2567C80.8582 40.4834 80.7302 40.7908 80.7297 41.1114V71.7539C80.7302 72.0746 80.8582 72.3819 81.0855 72.6087C81.3129 72.8354 81.6211 72.963 81.9427 72.9635H129.787C130.109 72.963 130.417 72.8354 130.644 72.6087C130.872 72.3819 131 72.0746 131 71.7539V41.1114C131 40.7908 130.872 40.4834 130.644 40.2567C130.417 40.0299 130.109 39.9023 129.787 39.9019ZM130.731 71.7539C130.73 72.0033 130.631 72.2425 130.454 72.4188C130.277 72.5952 130.037 72.6944 129.787 72.6947H81.9427C81.6926 72.6944 81.4528 72.5952 81.2759 72.4188C81.099 72.2425 80.9996 72.0033 80.9993 71.7539V41.1114C80.9996 40.862 81.099 40.6229 81.2759 40.4465C81.4528 40.2701 81.6926 40.1709 81.9427 40.1706H129.787C130.037 40.1709 130.277 40.2701 130.454 40.4465C130.631 40.6229 130.73 40.862 130.731 41.1114V71.7539Z" fill="#3F3D56"/>
<path d="M92.155 55.1553H84.6077C84.304 55.1549 84.0128 55.0345 83.7981 54.8203C83.5833 54.6062 83.4625 54.3158 83.4622 54.0129V46.4867C83.4625 46.1838 83.5833 45.8935 83.7981 45.6793C84.0128 45.4652 84.304 45.3447 84.6077 45.3443H92.155C92.4587 45.3447 92.7499 45.4652 92.9647 45.6793C93.1794 45.8935 93.3002 46.1838 93.3006 46.4867V54.0129C93.3002 54.3158 93.1794 54.6062 92.9647 54.8203C92.7499 55.0345 92.4587 55.1549 92.155 55.1553Z" fill="#6C63FF"/>
<path d="M127.295 63.1532H84.4373C84.205 63.1532 83.9821 63.0611 83.8179 62.8973C83.6536 62.7335 83.5613 62.5113 83.5613 62.2796C83.5613 62.0479 83.6536 61.8257 83.8179 61.6619C83.9821 61.4981 84.205 61.406 84.4373 61.406H127.295C127.527 61.406 127.75 61.4981 127.915 61.6619C128.079 61.8257 128.171 62.0479 128.171 62.2796C128.171 62.5113 128.079 62.7335 127.915 62.8973C127.75 63.0611 127.527 63.1532 127.295 63.1532Z" fill="#CCCCCC"/>
<path d="M127.324 58.9197H84.4661C84.2338 58.9197 84.011 58.8276 83.8467 58.6638C83.6824 58.5 83.5901 58.2778 83.5901 58.0461C83.5901 57.8144 83.6824 57.5922 83.8467 57.4284C84.011 57.2646 84.2338 57.1725 84.4661 57.1725H127.324C127.556 57.1725 127.779 57.2646 127.943 57.4284C128.108 57.5922 128.2 57.8144 128.2 58.0461C128.2 58.2778 128.108 58.5 127.943 58.6638C127.779 58.8276 127.556 58.9197 127.324 58.9197Z" fill="#CCCCCC"/>
<path d="M106.165 53.1393H99.8304C99.598 53.1393 99.3752 53.0473 99.2109 52.8834C99.0466 52.7196 98.9543 52.4974 98.9543 52.2657C98.9543 52.034 99.0466 51.8118 99.2109 51.648C99.3752 51.4842 99.598 51.3921 99.8304 51.3921H106.165C106.397 51.3921 106.62 51.4842 106.784 51.648C106.948 51.8118 107.041 52.034 107.041 52.2657C107.041 52.4974 106.948 52.7196 106.784 52.8834C106.62 53.0473 106.397 53.1393 106.165 53.1393Z" fill="#CCCCCC"/>
<path d="M127.324 48.8399H99.8304C99.598 48.8399 99.3752 48.7479 99.2109 48.584C99.0466 48.4202 98.9543 48.198 98.9543 47.9663C98.9543 47.7346 99.0466 47.5124 99.2109 47.3486C99.3752 47.1848 99.598 47.0927 99.8304 47.0927H127.324C127.556 47.0927 127.779 47.1848 127.944 47.3486C128.108 47.5124 128.2 47.7346 128.2 47.9663C128.2 48.198 128.108 48.4202 127.944 48.584C127.779 48.7479 127.556 48.8399 127.324 48.8399Z" fill="#CCCCCC"/>
<path d="M105.086 67.4539H84.4373C84.205 67.4539 83.9821 67.3618 83.8179 67.198C83.6536 67.0342 83.5613 66.812 83.5613 66.5803C83.5613 66.3486 83.6536 66.1264 83.8179 65.9626C83.9821 65.7987 84.205 65.7067 84.4373 65.7067H105.086C105.319 65.7067 105.542 65.7987 105.706 65.9626C105.87 66.1264 105.962 66.3486 105.962 66.5803C105.962 66.812 105.87 67.0342 105.706 67.198C105.542 67.3618 105.319 67.4539 105.086 67.4539Z" fill="#CCCCCC"/>
</g>
<defs>
<clipPath id="clip0_13_162">
<rect width="131" height="86" fill="white"/>
</clipPath>
</defs>
</svg>