<svg width="100" height="72" viewBox="0 0 100 72" fill="none" xmlns="http://www.w3.org/2000/svg">
<g clip-path="url(#clip0_87_2732)">
<path d="M63.725 53.9761V71.3324H19.9483C14.9606 71.3324 10.9025 67.4392 10.9025 62.6542C10.9025 57.8692 14.9606 53.9761 19.9483 53.9761H63.725Z" fill="#F2F2F2"/>
<path d="M64.8003 71.199C64.8002 71.376 64.7294 71.5458 64.6033 71.6709C64.4773 71.7961 64.3064 71.8665 64.1282 71.8665H19.1685C16.7267 71.8665 14.3849 70.903 12.6582 69.1879C10.9316 67.4728 9.96155 65.1466 9.96155 62.7211C9.96155 60.2956 10.9316 57.9694 12.6582 56.2543C14.3849 54.5392 16.7267 53.5757 19.1685 53.5757H64.1282C64.3065 53.5757 64.4774 53.646 64.6034 53.7712C64.7295 53.8964 64.8003 54.0662 64.8003 54.2432C64.8003 54.4203 64.7295 54.5901 64.6034 54.7153C64.4774 54.8404 64.3065 54.9108 64.1282 54.9108H19.1685C17.0832 54.9108 15.0832 55.7337 13.6086 57.1984C12.134 58.6631 11.3056 60.6497 11.3056 62.7211C11.3056 64.7925 12.134 66.7791 13.6086 68.2438C15.0832 69.7086 17.0832 70.5314 19.1685 70.5314H64.1282C64.3064 70.5315 64.4773 70.6019 64.6033 70.727C64.7294 70.8522 64.8002 71.022 64.8003 71.199Z" fill="#6C63FF"/>
<path d="M63.725 57.9814H16.682C16.6464 57.9814 16.6122 57.9673 16.587 57.9423C16.5618 57.9172 16.5476 57.8833 16.5476 57.8479C16.5476 57.8125 16.5618 57.7785 16.587 57.7535C16.6122 57.7284 16.6464 57.7144 16.682 57.7144H63.725C63.7607 57.7144 63.7949 57.7284 63.8201 57.7535C63.8453 57.7785 63.8594 57.8125 63.8594 57.8479C63.8594 57.8833 63.8453 57.9172 63.8201 57.9423C63.7949 57.9673 63.7607 57.9814 63.725 57.9814Z" fill="#CCCCCC"/>
<path d="M63.725 61.1857H16.682C16.6464 61.1857 16.6122 61.1717 16.587 61.1466C16.5618 61.1216 16.5476 61.0876 16.5476 61.0522C16.5476 61.0168 16.5618 60.9828 16.587 60.9578C16.6122 60.9328 16.6464 60.9187 16.682 60.9187H63.725C63.7607 60.9187 63.7949 60.9328 63.8201 60.9578C63.8453 60.9828 63.8594 61.0168 63.8594 61.0522C63.8594 61.0876 63.8453 61.1216 63.8201 61.1466C63.7949 61.1717 63.7607 61.1857 63.725 61.1857Z" fill="#CCCCCC"/>
<path d="M63.725 64.3901H16.682C16.6464 64.3901 16.6122 64.376 16.587 64.351C16.5618 64.3259 16.5476 64.292 16.5476 64.2566C16.5476 64.2211 16.5618 64.1872 16.587 64.1622C16.6122 64.1371 16.6464 64.123 16.682 64.123H63.725C63.7607 64.123 63.7949 64.1371 63.8201 64.1622C63.8453 64.1872 63.8594 64.2211 63.8594 64.2566C63.8594 64.292 63.8453 64.3259 63.8201 64.351C63.7949 64.376 63.7607 64.3901 63.725 64.3901Z" fill="#CCCCCC"/>
<path d="M63.725 67.5942H16.682C16.6464 67.5942 16.6122 67.5801 16.587 67.5551C16.5618 67.53 16.5476 67.4961 16.5476 67.4607C16.5476 67.4252 16.5618 67.3913 16.587 67.3663C16.6122 67.3412 16.6464 67.3271 16.682 67.3271H63.725C63.7607 67.3271 63.7949 67.3412 63.8201 67.3663C63.8453 67.3913 63.8594 67.4252 63.8594 67.4607C63.8594 67.4961 63.8453 67.53 63.8201 67.5551C63.7949 67.5801 63.7607 67.5942 63.725 67.5942Z" fill="#CCCCCC"/>
<path d="M97.558 57.2432L86.595 70.7582L52.5069 43.4754C48.623 40.3669 47.9222 34.8063 50.9446 31.0803C53.967 27.3543 59.586 26.8519 63.4699 29.9604L97.558 57.2432Z" fill="#F2F2F2"/>
<path d="M87.5166 71.3245C87.4048 71.4623 87.2424 71.5504 87.0652 71.5693C86.888 71.5883 86.7105 71.5365 86.5717 71.4255L51.5624 43.4055C49.661 41.8837 48.4461 39.6739 48.1849 37.2623C47.9238 34.8507 48.6377 32.4348 50.1698 30.5461C51.7019 28.6574 53.9265 27.4506 56.3544 27.1912C58.7822 26.9317 61.2143 27.6409 63.1158 29.1628L98.125 57.1828C98.1938 57.2378 98.251 57.3057 98.2933 57.3826C98.3357 57.4596 98.3623 57.5441 98.3718 57.6313C98.3813 57.7185 98.3733 57.8066 98.3485 57.8908C98.3236 57.9749 98.2823 58.0534 98.2269 58.1217C98.1715 58.19 98.1031 58.2467 98.0257 58.2888C97.9482 58.3308 97.8631 58.3572 97.7753 58.3666C97.6875 58.3759 97.5988 58.368 97.514 58.3433C97.4293 58.3185 97.3504 58.2775 97.2817 58.2224L62.2725 30.2024C61.4685 29.5584 60.5446 29.078 59.5537 28.7888C58.5628 28.4995 57.5242 28.407 56.4972 28.5165C55.4703 28.626 54.4752 28.9355 53.5687 29.4271C52.6621 29.9187 51.862 30.583 51.214 31.3818C50.566 32.1807 50.0828 33.0986 49.7919 34.083C49.5011 35.0674 49.4084 36.0991 49.5191 37.1191C49.6297 38.1391 49.9416 39.1275 50.4369 40.0277C50.9322 40.928 51.6013 41.7225 52.4058 42.3659L87.415 70.3859C87.5537 70.497 87.6423 70.6583 87.6614 70.8343C87.6805 71.0103 87.6284 71.1867 87.5166 71.3245Z" fill="#CCCCCC"/>
<path d="M95.0281 60.362L58.3966 31.0436C58.3829 31.0326 58.3715 31.019 58.363 31.0037C58.3545 30.9883 58.3492 30.9714 58.3473 30.9539C58.3454 30.9365 58.347 30.9189 58.352 30.9021C58.357 30.8852 58.3652 30.8695 58.3763 30.8559C58.3874 30.8422 58.4011 30.8309 58.4165 30.8225C58.432 30.8141 58.449 30.8088 58.4666 30.8069C58.4841 30.805 58.5019 30.8066 58.5188 30.8116C58.5358 30.8165 58.5516 30.8247 58.5653 30.8357L95.1968 60.1541C95.2105 60.1651 95.222 60.1787 95.2305 60.1941C95.2389 60.2095 95.2443 60.2264 95.2462 60.2438C95.2481 60.2613 95.2465 60.2789 95.2415 60.2957C95.2366 60.3126 95.2283 60.3283 95.2172 60.342C95.2061 60.3556 95.1925 60.367 95.177 60.3754C95.1614 60.3838 95.1444 60.3891 95.1269 60.3909C95.1093 60.3928 95.0915 60.3912 95.0746 60.3862C95.0576 60.3813 95.0418 60.3731 95.0281 60.362Z" fill="#CCCCCC"/>
<path d="M93.0042 62.8573L56.3727 33.5389C56.345 33.5166 56.3273 33.4844 56.3235 33.4492C56.3197 33.414 56.3302 33.3788 56.3525 33.3513C56.3749 33.3237 56.4073 33.3061 56.4427 33.3023C56.4781 33.2985 56.5136 33.3088 56.5414 33.331L93.1728 62.6494C93.1866 62.6604 93.198 62.6739 93.2065 62.6893C93.215 62.7047 93.2204 62.7216 93.2223 62.7391C93.2242 62.7565 93.2226 62.7742 93.2176 62.791C93.2126 62.8078 93.2044 62.8235 93.1933 62.8372C93.1822 62.8509 93.1685 62.8622 93.153 62.8706C93.1375 62.879 93.1205 62.8843 93.1029 62.8862C93.0854 62.8881 93.0676 62.8865 93.0507 62.8815C93.0337 62.8765 93.0179 62.8683 93.0042 62.8573Z" fill="#CCCCCC"/>
<path d="M90.9803 65.3523L54.3488 36.0339C54.321 36.0116 54.3033 35.9794 54.2995 35.9442C54.2957 35.909 54.3061 35.8737 54.3285 35.8461C54.3508 35.8186 54.3833 35.8009 54.4187 35.7972C54.4542 35.7934 54.4897 35.8037 54.5174 35.8259L91.1489 65.1444C91.1627 65.1554 91.1741 65.1689 91.1825 65.1843C91.191 65.1997 91.1963 65.2166 91.1982 65.234C91.2001 65.2515 91.1985 65.2691 91.1936 65.2859C91.1886 65.3027 91.1803 65.3184 91.1692 65.3321C91.1582 65.3457 91.1445 65.3571 91.129 65.3655C91.1135 65.3739 91.0965 65.3792 91.079 65.3811C91.0614 65.3829 91.0437 65.3814 91.0267 65.3764C91.0098 65.3715 90.994 65.3633 90.9803 65.3523Z" fill="#CCCCCC"/>
<path d="M88.9563 67.8474L52.3249 38.529C52.3111 38.518 52.2997 38.5044 52.2912 38.489C52.2828 38.4736 52.2774 38.4567 52.2756 38.4393C52.2737 38.4219 52.2753 38.4042 52.2802 38.3874C52.2852 38.3706 52.2935 38.3549 52.3045 38.3412C52.3156 38.3276 52.3293 38.3162 52.3448 38.3078C52.3603 38.2994 52.3773 38.2941 52.3948 38.2923C52.4124 38.2904 52.4301 38.292 52.447 38.2969C52.464 38.3018 52.4798 38.3101 52.4935 38.3211L89.125 67.6395C89.1388 67.6504 89.1502 67.664 89.1587 67.6794C89.1672 67.6948 89.1725 67.7117 89.1744 67.7292C89.1763 67.7466 89.1747 67.7643 89.1698 67.7811C89.1648 67.7979 89.1565 67.8136 89.1454 67.8273C89.1344 67.841 89.1207 67.8523 89.1052 67.8607C89.0897 67.8691 89.0726 67.8744 89.0551 67.8763C89.0375 67.8781 89.0198 67.8766 89.0028 67.8716C88.9859 67.8666 88.9701 67.8584 88.9563 67.8474Z" fill="#CCCCCC"/>
<path d="M99.8656 71.9999H0.134409C0.0987612 71.9999 0.0645738 71.9859 0.0393673 71.9608C0.0141608 71.9358 0 71.9018 0 71.8664C0 71.831 0.0141608 71.7971 0.0393673 71.772C0.0645738 71.747 0.0987612 71.7329 0.134409 71.7329H99.8656C99.9012 71.7329 99.9354 71.747 99.9606 71.772C99.9858 71.7971 100 71.831 100 71.8664C100 71.9018 99.9858 71.9358 99.9606 71.9608C99.9354 71.9859 99.9012 71.9999 99.8656 71.9999Z" fill="#CCCCCC"/>
<path d="M45.441 52.1518L43.9045 52.1517L43.1737 46.2644L45.4416 46.2647L45.441 52.1518Z" fill="#FFB8B8"/>
<path d="M42.8068 51.7156H45.7702V53.569H40.9409C40.9409 53.3256 40.9892 53.0846 41.0829 52.8597C41.1767 52.6348 41.3141 52.4305 41.4874 52.2584C41.6607 52.0863 41.8664 51.9498 42.0927 51.8567C42.3191 51.7635 42.5617 51.7156 42.8068 51.7156Z" fill="#2F2E41"/>
<path d="M29.7427 52.1518L28.2061 52.1517L27.4753 46.2644L29.7432 46.2647L29.7427 52.1518Z" fill="#FFB8B8"/>
<path d="M27.1085 51.7156H30.0719V53.569H25.2427C25.2427 53.3256 25.2909 53.0846 25.3847 52.8597C25.4785 52.6348 25.6159 52.4305 25.7892 52.2584C25.9624 52.0863 26.1681 51.9498 26.3945 51.8567C26.6209 51.7635 26.8635 51.7156 27.1085 51.7156Z" fill="#2F2E41"/>
<path d="M34.8751 8.48228V7.81473C34.8751 6.67279 35.3318 5.57762 36.1447 4.77014C36.9576 3.96267 38.0602 3.50903 39.2098 3.50903C40.3594 3.50903 41.462 3.96267 42.2749 4.77014C43.0878 5.57762 43.5445 6.67279 43.5445 7.81473V8.48228C43.5445 9.30554 43.2152 10.0951 42.6292 10.6772C42.0431 11.2594 41.2483 11.5864 40.4195 11.5864H38.0001C37.5897 11.5864 37.1834 11.5061 36.8042 11.3501C36.4251 11.1941 36.0806 10.9655 35.7904 10.6772C35.5002 10.389 35.27 10.0468 35.113 9.67018C34.956 9.29357 34.8751 8.88992 34.8751 8.48228Z" fill="#2F2E41"/>
<path d="M39.2098 11.8161C41.033 11.8161 42.511 10.348 42.511 8.53695C42.511 6.72593 41.033 5.25781 39.2098 5.25781C37.3866 5.25781 35.9086 6.72593 35.9086 8.53695C35.9086 10.348 37.3866 11.8161 39.2098 11.8161Z" fill="#FFB8B8"/>
<path d="M21.2533 19.807C21.3872 19.6814 21.5473 19.5864 21.7222 19.5288C21.8971 19.4713 22.0826 19.4525 22.2656 19.4739C22.4486 19.4952 22.6247 19.5562 22.7814 19.6524C22.9381 19.7487 23.0717 19.8779 23.1727 20.031L26.0026 19.4992L26.7473 21.1287L22.7403 21.8238C22.4702 21.9753 22.1535 22.0231 21.8502 21.9582C21.547 21.8933 21.2783 21.7201 21.095 21.4715C20.9117 21.2229 20.8265 20.9161 20.8557 20.6094C20.8849 20.3026 21.0263 20.0171 21.2533 19.807Z" fill="#FFB8B8"/>
<path d="M36.6731 13.937L32.0325 16.9736L24.2021 19.4573C24.0983 19.4904 24.0093 19.5583 23.9502 19.6493C23.8911 19.7403 23.8655 19.8488 23.8779 19.9564L24.0488 21.4179C24.0563 21.4826 24.0774 21.545 24.1107 21.6011C24.144 21.6572 24.1887 21.7058 24.242 21.7437C24.2952 21.7816 24.3559 21.8081 24.4201 21.8214C24.4843 21.8347 24.5505 21.8345 24.6146 21.8209L31.9842 20.2518C32.3409 20.1763 32.6781 20.0288 32.975 19.8185L38.1884 16.134C38.3774 15.9997 38.5283 15.8191 38.6262 15.6098C38.7241 15.4005 38.7659 15.1695 38.7474 14.9394C38.7282 14.709 38.6491 14.4875 38.5176 14.2967C38.3862 14.1059 38.207 13.9524 37.9977 13.8513C37.7884 13.7501 37.5562 13.7048 37.324 13.7199C37.0917 13.7349 36.8674 13.8097 36.6731 13.937Z" fill="#CCCCCC"/>
<path d="M43.9318 50.4811C43.8139 50.4811 43.6985 50.4471 43.5997 50.383C43.501 50.319 43.4231 50.2278 43.3757 50.1205L36.3313 32.8308C36.3149 32.7933 36.2873 32.7617 36.2522 32.7403C36.2171 32.7188 36.1763 32.7086 36.1352 32.7109C36.0941 32.7132 36.0546 32.7279 36.0222 32.7532C35.9898 32.7784 35.9659 32.8129 35.9538 32.852L30.2068 49.684C30.1825 49.7624 30.1424 49.8349 30.0888 49.8973C30.0353 49.9597 29.9695 50.0105 29.8954 50.0466C29.8214 50.0828 29.7407 50.1035 29.6582 50.1075C29.5758 50.1116 29.4935 50.0988 29.4162 50.07L27.489 49.3522C27.3844 49.3135 27.2926 49.2469 27.2239 49.1596C27.1552 49.0722 27.1121 48.9677 27.0996 48.8576C26.2326 41.3553 33.7932 22.4186 33.8697 22.2283L33.8908 22.1755L40.7829 23.6899L40.7973 23.7054C43.547 26.6851 45.8071 45.4785 46.2323 49.2157C46.2482 49.3506 46.2172 49.487 46.1446 49.6022C46.072 49.7174 45.9621 49.8045 45.833 49.8494L44.1319 50.447C44.0676 50.4696 44 50.4811 43.9318 50.4811Z" fill="#2F2E41"/>
<path d="M37.9936 24.2995C36.3238 24.2995 34.4621 23.9688 33.8891 22.6038L33.8759 22.5725L33.8937 22.5434C34.346 21.8062 34.9438 20.5487 34.6225 20.3126C33.9896 19.8478 33.6824 19.083 33.7097 18.0396C33.7689 15.7745 35.3226 13.7634 37.5761 13.0353C38.205 12.8354 38.8452 12.6716 39.4931 12.545C39.9655 12.4503 40.4532 12.4607 40.9211 12.5755C41.3889 12.6903 41.8254 12.9065 42.1991 13.2088C42.5776 13.513 42.8835 13.8967 43.0948 14.3323C43.3062 14.7679 43.4179 15.2446 43.4217 15.7282C43.4453 18.1488 43.0702 21.5203 41.1486 23.8349C41.0585 23.9423 40.9332 24.0147 40.7947 24.0394C39.8702 24.2055 38.9331 24.2925 37.9936 24.2995Z" fill="#CCCCCC"/>
<path d="M37.3725 24.2088C37.4634 23.885 37.6792 23.6099 37.9732 23.4433C38.2671 23.2767 38.6153 23.2321 38.9422 23.3191C39.0089 23.3376 39.074 23.3615 39.1368 23.3907L41.2855 21.4482L42.7799 22.4483L39.7071 25.1493C39.5683 25.3978 39.3499 25.5931 39.0865 25.704C38.8232 25.815 38.53 25.8353 38.2537 25.7617C38.0927 25.7179 37.9421 25.6429 37.8105 25.5409C37.6789 25.439 37.569 25.3122 37.487 25.1678C37.4051 25.0234 37.3528 24.8643 37.3331 24.6997C37.3135 24.5351 37.3269 24.3682 37.3725 24.2088Z" fill="#FFB8B8"/>
<path d="M40.9451 24.2337C40.8057 24.2337 40.6705 24.1859 40.5626 24.0981L39.7153 23.4103C39.6446 23.353 39.588 23.2805 39.5495 23.1983C39.5111 23.1162 39.4918 23.0264 39.4932 22.9358C39.4946 22.8452 39.5167 22.7561 39.5577 22.6751C39.5986 22.5942 39.6575 22.5235 39.7299 22.4684L43.2839 19.7608C43.326 19.7286 43.3537 19.6811 43.3608 19.6288C43.3679 19.5764 43.354 19.5234 43.322 19.4812L41.1284 16.6005C40.8736 16.267 40.7457 15.8546 40.7676 15.4364C40.7894 15.0182 40.9595 14.6212 41.2477 14.3156C41.5512 13.9899 41.967 13.7896 42.4123 13.7542C42.8577 13.7188 43.3002 13.851 43.652 14.1246L43.6658 14.1391L45.9564 17.3971C46.2041 17.59 46.4036 17.8372 46.5392 18.1193C46.6748 18.4014 46.743 18.7109 46.7383 19.0235C46.7336 19.3361 46.6562 19.6434 46.5122 19.9214C46.3682 20.1994 46.1614 20.4406 45.908 20.6261L41.3051 24.1159C41.2009 24.1924 41.0747 24.2337 40.9451 24.2337Z" fill="#CCCCCC"/>
<path d="M36.2856 7.61455V5.98758L39.2098 4.71924L41.998 5.98758V7.61455C41.998 7.68537 41.9697 7.75329 41.9193 7.80336C41.8689 7.85344 41.8005 7.88157 41.7292 7.88157H36.5545C36.4832 7.88157 36.4148 7.85344 36.3644 7.80336C36.314 7.75329 36.2856 7.68537 36.2856 7.61455Z" fill="#2F2E41"/>
<path d="M39.0755 3.72487C38.6456 2.35793 39.5486 0.79135 40.8835 0.250279C42.2183 -0.290792 43.8154 0.0874331 44.9417 0.981365C46.0681 1.8753 46.767 3.21424 47.1373 4.5983C47.5075 5.98237 47.5778 7.42562 47.6462 8.85611C49.2863 9.15536 50.402 11.0876 49.8338 12.6449C49.2656 14.2022 47.1627 14.9758 45.7104 14.1619C44.2581 13.3479 43.8375 11.16 44.8857 9.87172C45.3816 9.26215 45.6587 8.50564 45.6729 7.72201C45.6872 6.93838 45.4378 6.17243 44.9643 5.54547C44.4909 4.9185 43.8203 4.46637 43.059 4.26067C42.2976 4.05498 41.4889 4.10748 40.761 4.40986C39.9526 4.74563 38.9384 3.87324 39.0755 3.72487Z" fill="#2F2E41"/>
<path d="M20.647 13.4955C18.6834 13.4827 16.7443 13.0608 14.9551 12.2572C14.8486 12.2101 14.7582 12.1332 14.6949 12.0359C14.6316 11.9386 14.5981 11.8251 14.5986 11.7093V6.84713C14.5988 6.68785 14.6626 6.53513 14.776 6.4225C14.8894 6.30987 15.0431 6.24651 15.2035 6.24634H26.0906C26.2509 6.24652 26.4047 6.30987 26.5181 6.4225C26.6315 6.53514 26.6952 6.68785 26.6954 6.84713V11.7093C26.6959 11.8251 26.6625 11.9386 26.5992 12.0359C26.5359 12.1332 26.4455 12.2101 26.339 12.2572C24.5497 13.0609 22.6106 13.4827 20.647 13.4955Z" fill="#6C63FF"/>
<path d="M20.6456 9.55668C20.5648 9.55674 20.4849 9.54079 20.4105 9.50974L11.7772 5.89167C11.6659 5.84502 11.5711 5.76631 11.5053 5.66569C11.4394 5.56507 11.4054 5.44716 11.4076 5.32716C11.4098 5.20715 11.4481 5.09055 11.5177 4.9924C11.5872 4.89425 11.6848 4.81903 11.7978 4.77647L20.4312 1.52313C20.5703 1.47049 20.724 1.47082 20.8628 1.52405L29.3806 4.77737C29.4929 4.82028 29.5898 4.89551 29.6589 4.99343C29.7279 5.09135 29.766 5.20751 29.7682 5.32704C29.7704 5.44657 29.7367 5.56405 29.6714 5.66444C29.606 5.76482 29.512 5.84356 29.4013 5.89056L20.8834 9.50856C20.8082 9.54038 20.7273 9.55675 20.6456 9.55668Z" fill="#6C63FF"/>
<path d="M15.6067 12.5882C16.0521 12.5882 16.4132 12.2296 16.4132 11.7871C16.4132 11.3447 16.0521 10.9861 15.6067 10.9861C15.1614 10.9861 14.8003 11.3447 14.8003 11.7871C14.8003 12.2296 15.1614 12.5882 15.6067 12.5882Z" fill="#3F3D56"/>
<path opacity="0.2" d="M29.4307 5.37696L20.9129 8.99496C20.8465 9.02317 20.775 9.0378 20.7028 9.03797C20.6306 9.03814 20.5591 9.02386 20.4925 8.99597L11.8592 5.37801C11.7508 5.33366 11.6603 5.25469 11.6021 5.15357C11.564 5.21914 11.5405 5.29201 11.5329 5.36733C11.5254 5.44265 11.534 5.5187 11.5584 5.59043C11.5827 5.66217 11.6221 5.72795 11.6739 5.7834C11.7258 5.83885 11.7889 5.8827 11.8592 5.91205L20.4925 9.53001C20.5591 9.5579 20.6306 9.57218 20.7028 9.57201C20.775 9.57184 20.8465 9.55721 20.9129 9.529L29.4307 5.911C29.5006 5.88139 29.5634 5.83739 29.6149 5.78192C29.6664 5.72644 29.7055 5.66074 29.7295 5.58916C29.7536 5.51758 29.7621 5.44174 29.7545 5.36666C29.7469 5.29157 29.7233 5.21894 29.6854 5.15356C29.6276 5.25387 29.5381 5.3324 29.4307 5.37696Z" fill="black"/>
<path d="M15.6744 11.7839C15.7101 11.7839 15.7443 11.7698 15.7695 11.7448C15.7947 11.7197 15.8089 11.6858 15.8089 11.6504V7.18293L20.2418 5.57879C20.2775 5.57931 20.3119 5.56575 20.3374 5.54109C20.363 5.51642 20.3777 5.48267 20.3782 5.44727C20.3788 5.41186 20.3651 5.37769 20.3403 5.35228C20.3154 5.32687 20.2815 5.31229 20.2458 5.31177L15.8129 6.91591C15.7772 6.91509 15.7417 6.92148 15.7086 6.93468C15.6755 6.94788 15.6454 6.96762 15.6202 6.9927C15.5947 7.01748 15.5745 7.04708 15.5607 7.07975C15.547 7.11243 15.5399 7.14751 15.54 7.18293V11.6504C15.54 11.6858 15.5542 11.7197 15.5794 11.7448C15.6046 11.7698 15.6388 11.7839 15.6744 11.7839Z" fill="#3F3D56"/>
</g>
<defs>
<clipPath id="clip0_87_2732">
<rect width="100" height="72" fill="white"/>
</clipPath>
</defs>
</svg>