<svg width="135" height="87" viewBox="0 0 135 87" fill="none" xmlns="http://www.w3.org/2000/svg">
<g clip-path="url(#clip0_9_390)">
<path d="M129.214 22.3707H20.7893C19.7821 22.3719 18.8166 22.7715 18.1045 23.4819C17.3923 24.1922 16.9917 25.1553 16.9905 26.1599V83.2107C16.9897 84.176 17.36 85.1048 18.0251 85.8059C18.0921 85.8777 18.1624 85.9462 18.2344 86.0097C18.9314 86.6477 19.8433 87.0012 20.7893 87H129.214C130.221 86.9988 131.187 86.5992 131.899 85.8888C132.611 85.1784 133.012 84.2153 133.013 83.2107C135.662 64.2856 135.662 45.0851 133.013 26.1599C133.012 25.1553 132.611 24.1922 131.899 23.4819C131.187 22.7715 130.221 22.3719 129.214 22.3707Z" fill="#F2F2F2"/>
<path d="M124.192 16.3587H15.7668C14.7597 16.3599 13.7941 16.7595 13.082 17.4699C12.3698 18.1802 11.9692 19.1433 11.968 20.1479V77.1987C11.9672 78.164 12.3375 79.0928 13.0027 79.7939C13.0696 79.8657 13.14 79.9342 13.212 79.9976C13.9089 80.6357 14.8208 80.9892 15.7668 80.988H124.192C125.199 80.9868 126.164 80.5872 126.877 79.8768C127.589 79.1664 127.989 78.2033 127.991 77.1987V20.1479C127.989 19.1433 127.589 18.1802 126.877 17.4699C126.164 16.7595 125.199 16.3599 124.192 16.3587Z" fill="white"/>
<path d="M79.6125 54.378C79.5347 54.3816 79.4577 54.3612 79.3919 54.3196C79.326 54.2781 79.2746 54.2173 79.2446 54.1456C79.2145 54.0739 79.2073 53.9948 79.2239 53.9188C79.2404 53.8429 79.28 53.7739 79.3372 53.7211L79.3632 53.6179C79.3598 53.6096 79.3563 53.6014 79.3529 53.5931C79.2745 53.4084 79.1431 53.2509 78.9753 53.1405C78.8074 53.03 78.6106 52.9714 78.4095 52.9722C78.2084 52.9729 78.0121 53.0329 77.8451 53.1446C77.678 53.2564 77.5479 53.4148 77.4708 53.6001C77.163 54.3396 76.7711 55.0804 76.6746 55.8623C76.6321 56.2079 76.65 56.5583 76.7276 56.8978C76.0046 55.3246 75.6292 53.6148 75.6268 51.8843C75.6266 51.45 75.6508 51.0161 75.6992 50.5845C75.7393 50.2307 75.7948 49.8794 75.8658 49.5307C76.2533 47.6384 77.0853 45.8647 78.2934 44.3554C78.8781 44.0371 79.351 43.5478 79.6483 42.9532C79.756 42.7394 79.8322 42.5113 79.8743 42.2758C79.8084 42.2844 79.6256 41.2823 79.6754 41.2209C79.5834 41.0817 79.4189 41.0126 79.3185 40.8768C78.8192 40.2015 78.1313 40.3194 77.7722 41.2371C77.005 41.6233 76.9976 42.2638 77.4683 42.8798C77.7678 43.2717 77.8089 43.802 78.0717 44.2216C78.0447 44.2561 78.0166 44.2896 77.9895 44.3241C77.4953 44.958 77.0646 45.6386 76.7036 46.3563C76.7914 45.5523 76.6866 44.739 76.3978 43.9833C76.1051 43.279 75.5565 42.6858 75.0734 42.077C74.9456 41.9134 74.7721 41.7913 74.5748 41.7261C74.3775 41.6609 74.1652 41.6555 73.9648 41.7106C73.7644 41.7657 73.5849 41.8788 73.4489 42.0357C73.313 42.1926 73.2267 42.3861 73.201 42.5919C73.2 42.6008 73.199 42.6098 73.1981 42.6188C73.2698 42.6592 73.3401 42.702 73.4088 42.7474C73.4951 42.8049 73.562 42.8871 73.6007 42.9832C73.6394 43.0793 73.6481 43.1849 73.6257 43.286C73.6032 43.3871 73.5506 43.4791 73.4749 43.5499C73.3991 43.6207 73.3037 43.6671 73.201 43.6829L73.1905 43.6845C73.2161 43.9424 73.2613 44.1981 73.3257 44.4492C72.7059 46.84 74.0439 47.7107 75.9544 47.7499C75.9966 47.7714 76.0377 47.793 76.0799 47.8135C75.7171 48.839 75.4896 49.9071 75.403 50.9912C75.3539 51.6307 75.3568 52.2731 75.4116 52.9122L75.4084 52.8896C75.2699 52.1789 74.8899 51.5377 74.3324 51.0742C73.5044 50.3957 72.3346 50.1459 71.4414 49.6006C71.3464 49.5398 71.236 49.5073 71.1232 49.507C71.0104 49.5068 70.8999 49.5387 70.8046 49.599C70.7094 49.6593 70.6335 49.7456 70.5858 49.8476C70.5381 49.9495 70.5206 50.063 70.5354 50.1745L70.5391 50.1984C70.6722 50.2525 70.8019 50.3148 70.9273 50.385C70.999 50.4253 71.0693 50.4682 71.138 50.5135C71.2243 50.5711 71.2912 50.6533 71.3299 50.7494C71.3686 50.8455 71.3773 50.951 71.3548 51.0522C71.3324 51.1533 71.2798 51.2453 71.204 51.3161C71.1283 51.3869 71.0328 51.4333 70.9302 51.449L70.9197 51.4506C70.9121 51.4517 70.9056 51.4528 70.8981 51.4539C71.1256 51.9958 71.4449 52.4946 71.8421 52.9284C72.2296 55.0154 73.894 55.2134 75.6744 54.6057H75.6755C75.8708 55.4524 76.1538 56.2766 76.52 57.065H79.5369C79.5478 57.0315 79.5575 56.997 79.5672 56.9636C79.288 56.9811 79.0076 56.9644 78.7324 56.914C78.9563 56.64 79.1801 56.3638 79.4039 56.0899C79.4089 56.0847 79.4136 56.0794 79.418 56.0737C79.5315 55.9335 79.6462 55.7943 79.7597 55.6541L79.7598 55.6539C79.7658 55.2241 79.7163 54.7952 79.6125 54.378Z" fill="#F2F2F2"/>
<path d="M127.991 59.6119V65.6757C127.989 66.6803 127.589 67.6434 126.877 68.3537C126.164 69.0641 125.199 69.4637 124.192 69.4649H15.7668C14.8208 69.4662 13.9089 69.1127 13.212 68.4746C13.14 68.4111 13.0696 68.3427 13.0027 68.2709C12.3375 67.5698 11.9672 66.6409 11.968 65.6757V59.6119C44.9752 54.1745 85.568 56.0153 127.991 59.6119Z" fill="#3F3D56"/>
<path d="M127.991 66.2919V72.3557C127.989 73.3603 127.589 74.3234 126.877 75.0338C126.164 75.7441 125.199 76.1437 124.192 76.1449H15.7668C14.8208 76.1462 13.9089 75.7927 13.212 75.1546C13.14 75.0912 13.0696 75.0227 13.0027 74.9509C12.3375 74.2498 11.9672 73.321 11.968 72.3557V66.2919C42.3498 62.2366 83.694 63.5423 127.991 66.2919Z" fill="white"/>
<path d="M127.991 71.1349V77.1987C127.989 78.2033 127.589 79.1664 126.877 79.8768C126.164 80.5872 125.199 80.9868 124.192 80.988H15.7668C14.8208 80.9892 13.9089 80.6357 13.212 79.9977C13.14 79.9342 13.0696 79.8657 13.0027 79.7939C12.3375 79.0928 11.9672 78.164 11.968 77.1987V71.1349C44.8412 67.7296 84.8921 68.5378 127.991 71.1349Z" fill="#3F3D56"/>
<path d="M118.957 53.543C118.879 53.5466 118.802 53.5262 118.736 53.4846C118.67 53.4431 118.619 53.3823 118.589 53.3106C118.559 53.2389 118.551 53.1598 118.568 53.0838C118.584 53.0079 118.624 52.9389 118.681 52.8861L118.707 52.7829C118.704 52.7746 118.7 52.7664 118.697 52.7581C118.618 52.5734 118.487 52.4159 118.319 52.3054C118.151 52.195 117.955 52.1364 117.754 52.1372C117.552 52.1379 117.356 52.1979 117.189 52.3096C117.022 52.4214 116.892 52.5798 116.815 52.7651C116.507 53.5046 116.115 54.2454 116.019 55.0273C115.976 55.3729 115.994 55.7233 116.072 56.0628C115.349 54.4896 114.973 52.7798 114.971 51.0493C114.971 50.615 114.995 50.1811 115.043 49.7495C115.083 49.3957 115.139 49.0444 115.21 48.6957C115.597 46.8033 116.429 45.0297 117.637 43.5204C118.222 43.2021 118.695 42.7127 118.992 42.1182C119.1 41.9044 119.176 41.6763 119.218 41.4408C119.152 41.4494 118.97 40.4473 119.019 40.3859C118.927 40.2467 118.763 40.1776 118.663 40.0418C118.163 39.3665 117.475 39.4844 117.116 40.402C116.349 40.7883 116.342 41.4288 116.812 42.0448C117.112 42.4367 117.153 42.967 117.416 43.3866C117.389 43.4211 117.361 43.4546 117.334 43.4891C116.839 44.123 116.409 44.8036 116.048 45.5213C116.135 44.7173 116.031 43.904 115.742 43.1483C115.449 42.444 114.901 41.8508 114.417 41.2419C114.29 41.0784 114.116 40.9563 113.919 40.8911C113.721 40.8259 113.509 40.8205 113.309 40.8756C113.108 40.9307 112.929 41.0438 112.793 41.2007C112.657 41.3576 112.571 41.5511 112.545 41.7569C112.544 41.7658 112.543 41.7748 112.542 41.7838C112.614 41.8242 112.684 41.867 112.753 41.9124C112.839 41.9699 112.906 42.0521 112.945 42.1482C112.983 42.2443 112.992 42.3499 112.97 42.451C112.947 42.5521 112.895 42.6441 112.819 42.7149C112.743 42.7857 112.648 42.8321 112.545 42.8479L112.535 42.8495C112.56 43.1074 112.605 43.3631 112.67 43.6142C112.05 46.005 113.388 46.8757 115.298 46.9149C115.341 46.9364 115.382 46.958 115.424 46.9785C115.061 48.004 114.834 49.0721 114.747 50.1561C114.698 50.7957 114.701 51.4381 114.756 52.0772L114.752 52.0545C114.614 51.3439 114.234 50.7027 113.676 50.2392C112.848 49.5607 111.679 49.3109 110.785 48.7655C110.69 48.7047 110.58 48.6723 110.467 48.672C110.354 48.6717 110.244 48.7037 110.149 48.764C110.053 48.8243 109.977 48.9106 109.93 49.0125C109.882 49.1145 109.865 49.228 109.879 49.3395L109.883 49.3634C110.016 49.4175 110.146 49.4798 110.271 49.55C110.343 49.5903 110.413 49.6332 110.482 49.6785C110.568 49.7361 110.635 49.8183 110.674 49.9144C110.713 50.0105 110.721 50.116 110.699 50.2172C110.676 50.3183 110.624 50.4103 110.548 50.4811C110.472 50.5519 110.377 50.5982 110.274 50.614L110.264 50.6156C110.256 50.6167 110.25 50.6178 110.242 50.6189C110.47 51.1608 110.789 51.6596 111.186 52.0934C111.574 54.1804 113.238 54.3784 115.018 53.7707H115.019C115.215 54.6174 115.498 55.4416 115.864 56.2299H118.881C118.892 56.1965 118.901 56.162 118.911 56.1285C118.632 56.1461 118.352 56.1294 118.076 56.0789C118.3 55.805 118.524 55.5288 118.748 55.2549C118.753 55.2497 118.758 55.2443 118.762 55.2387C118.876 55.0985 118.99 54.9593 119.104 54.8191L119.104 54.8189C119.11 54.3891 119.06 53.9602 118.957 53.543Z" fill="#F2F2F2"/>
<path d="M117.03 60.4512C117.03 60.5057 117.029 60.5602 117.028 60.6139H105.994C105.741 60.6141 105.491 60.5625 105.26 60.4625C105.028 60.3624 104.82 60.2159 104.647 60.0322C104.651 59.9557 104.658 59.88 104.666 59.8043C104.99 56.694 109.049 52.0055 110.831 54.2679C112.614 56.5302 117.03 57.0365 117.03 60.4512Z" fill="#3F3D56"/>
<path d="M122.903 60.5005C122.903 60.5385 122.902 60.5765 122.901 60.6139H115.21C115.034 60.614 114.86 60.5781 114.699 60.5084C114.537 60.4386 114.392 60.3365 114.271 60.2084C114.274 60.1551 114.279 60.1024 114.285 60.0496C114.511 57.8817 117.941 54.0561 118.582 56.1907C120.214 61.6311 122.869 58.3618 122.903 60.5005Z" fill="#3F3D56"/>
<path d="M124.192 16.3587H15.7668C14.7597 16.3599 13.7941 16.7595 13.082 17.4699C12.3698 18.1802 11.9692 19.1433 11.968 20.1479V77.1987C11.9672 78.164 12.3375 79.0928 13.0027 79.7939C13.0696 79.8657 13.14 79.9342 13.212 79.9976C13.9089 80.6357 14.8208 80.9892 15.7668 80.988H124.192C125.199 80.9868 126.164 80.5871 126.877 79.8768C127.589 79.1664 127.989 78.2033 127.991 77.1987C133.199 62.5301 131.368 41.9841 127.991 20.1479C127.989 19.1433 127.589 18.1802 126.877 17.4699C126.164 16.7595 125.199 16.3599 124.192 16.3587ZM127.656 58.8571C127.656 64.638 125.354 70.1821 121.256 74.2698C117.158 78.3575 111.599 80.654 105.804 80.654H15.7668C14.9524 80.6554 14.1639 80.3684 13.5418 79.844C13.3579 79.6887 13.1902 79.5153 13.0412 79.3263C12.5616 78.7205 12.3014 77.9707 12.3029 77.1987V20.1479C12.3029 19.2315 12.6678 18.3527 13.3174 17.7047C13.967 17.0567 14.8481 16.6927 15.7668 16.6927H95.3943C113.212 16.6927 127.656 31.1004 127.656 48.8732V58.8571Z" fill="#3F3D56"/>
<path d="M36.4383 73.1296C36.4392 73.1887 36.4374 73.2477 36.4365 73.3059H24.4773C24.2037 73.3061 23.933 73.2503 23.6819 73.1418C23.4309 73.0334 23.2048 72.8746 23.0178 72.6755C23.0222 72.5926 23.0293 72.5106 23.0382 72.4286C23.39 69.0576 26.8739 68.4138 29.7201 66.4283C32.9231 64.1939 36.3801 69.1724 36.4383 73.1296Z" fill="#3F3D56"/>
<path d="M39.09 71.6841C39.0645 71.7164 39.0894 71.7664 39.0888 71.807H30.7531C30.5624 71.8071 30.3737 71.7682 30.1987 71.6926C30.0237 71.617 29.8662 71.5063 29.7358 71.3675C29.7389 71.3097 29.7438 71.2526 29.75 71.1954C29.9952 68.8458 31.9875 67.0828 34.4074 67.0132C38.9184 66.8834 41.2382 68.9598 39.09 71.6841Z" fill="#3F3D56"/>
<path d="M40.2889 58.4335C40.2889 58.4926 40.288 58.5517 40.2871 58.6099H28.3278C28.0543 58.6101 27.7836 58.5542 27.5325 58.4458C27.2815 58.3373 27.0554 58.1786 26.8684 57.9794C26.8728 57.8965 26.8799 57.8145 26.8887 57.7325C27.2406 54.3616 31.0389 53.2802 33.5707 51.7322C36.1025 50.1842 40.2889 54.7328 40.2889 58.4335Z" fill="#3F3D56"/>
<path d="M42.9408 56.988C42.9367 57.0288 42.9363 57.07 42.9396 57.1109H34.6039C34.4132 57.111 34.2245 57.0721 34.0496 56.9965C33.8746 56.9209 33.717 56.8103 33.5867 56.6714C33.5897 56.6137 33.5947 56.5565 33.6008 56.4994C33.8461 54.1498 35.9688 53.102 38.2582 52.3171C42.0393 51.0206 43.6023 53.6909 42.9408 56.988Z" fill="#3F3D56"/>
<path d="M48.633 59.3219C48.6351 59.3629 48.6347 59.404 48.6318 59.4449H40.2961C40.1054 59.445 39.9167 59.4061 39.7417 59.3305C39.5667 59.2549 39.4092 59.1443 39.2788 59.0054C39.2819 58.9477 39.2868 58.8905 39.293 58.8334C39.5382 56.4838 42.2607 56.3803 43.9503 54.651C45.5157 53.0489 48.2914 56.2064 48.633 59.3219Z" fill="#3F3D56"/>
<path d="M97.52 40.0728H94.1716V80.988H97.52V40.0728Z" fill="#3F3D56"/>
<path d="M119.633 21.7428C119.509 19.3279 118.685 16.9031 117.066 15.1045C116.36 14.3196 113.373 12.4792 112.42 12.0166C112.782 9.1793 114.728 7.54269 113.304 5.11617C111.498 2.03835 107.729 0.233069 104.192 0.752441C102.926 0.944786 101.717 1.4098 100.649 2.11517C99.427 1.0497 97.7544 0.395059 96.1254 0.146228C90.994 -0.638676 85.5076 1.79119 82.6514 6.11484C82.2196 6.76838 82.1903 7.74638 82.4154 8.91224C83.2827 13.4057 80.7973 17.7853 76.5217 19.4437C76.4394 19.4739 76.3647 19.5216 76.3028 19.5835C73.8351 22.1302 73.0247 26.1483 74.3156 29.4499C74.6208 30.2314 74.7117 31.5901 75.5489 31.6269C80.9559 31.8645 81.3701 34.8083 78.3041 39.1854C77.6622 40.1018 78.5948 41.3963 79.1758 42.3707C80.5118 44.6135 83.2089 45.7658 85.8207 45.9195C88.4207 46.0731 90.989 45.3867 93.502 44.7037L96.8504 44.5701C99.7317 45.0661 102.745 44.9876 105.476 43.9589C108.421 42.8483 110.989 40.5337 111.963 37.5477C112.297 36.5274 118.031 37.8066 117.945 36.7328C119.372 36.0063 115.059 32.6596 116.139 31.4773C118.545 28.8192 119.801 25.3203 119.633 21.7428Z" fill="#6C63FF"/>
<path opacity="0.1" d="M106.814 39.1789C106.043 41.5411 104.273 43.4802 102.11 44.7383C103.203 44.6049 104.277 44.3433 105.308 43.9589C107.817 43.0128 110.049 41.1906 111.258 38.8261C109.559 38.8277 107.032 38.5116 106.814 39.1789Z" fill="black"/>
<path opacity="0.1" d="M116.139 31.4772C118.545 28.8192 119.801 25.3203 119.633 21.7428C119.509 19.3279 118.685 16.9031 117.066 15.1045C116.36 14.3196 113.373 12.4792 112.42 12.0166C112.782 9.1793 114.727 7.54269 113.304 5.11617C111.498 2.03834 107.729 0.233066 104.192 0.752438C102.926 0.944782 101.717 1.40979 100.649 2.11516C99.4268 1.0497 97.7543 0.395055 96.1253 0.146224C93.1639 -0.306749 90.0852 0.312757 87.4612 1.74726C88.6838 1.58423 89.9234 1.59437 91.1432 1.7774C92.7722 2.02623 94.4447 2.68088 95.6669 3.74634C96.7351 3.04828 99.8308 1.26627 99.2095 2.38361C96.554 7.15942 99.6926 9.50333 108.322 6.74734C109.696 6.30849 107.859 8.60952 105.69 11.3408C103.685 13.8655 105.904 17.5114 109.076 16.9111C110.626 16.6179 111.846 16.4711 112.084 16.7357C113.703 18.5343 119.56 21.3712 114.651 23.3739C109.742 25.3767 113.547 30.4932 111.157 33.1084C110.398 33.939 112.299 35.8369 113.004 37.145C114.742 37.0108 118.01 37.5456 117.945 36.7328C119.372 36.0063 115.059 32.6596 116.139 31.4772Z" fill="black"/>
<path d="M80.6086 50.3942H94.2422C94.2866 50.3942 94.3292 50.3766 94.3606 50.3453C94.392 50.314 94.4096 50.2715 94.4096 50.2272C94.4096 50.1829 94.392 50.1404 94.3606 50.1091C94.3292 50.0778 94.2866 50.0602 94.2422 50.0602H80.6086C80.5642 50.0602 80.5216 50.0778 80.4902 50.1091C80.4588 50.1404 80.4412 50.1829 80.4412 50.2272C80.4412 50.2715 80.4588 50.314 80.4902 50.3453C80.5216 50.3766 80.5642 50.3942 80.6086 50.3942Z" fill="#3F3D56"/>
<path d="M99.0668 63.6753C96.3026 60.0078 94.7049 55.9065 94.6525 51.2308C94.5635 50.9788 94.5782 50.7019 94.6936 50.4608C94.809 50.2196 95.0155 50.034 95.2679 49.9446L104.69 46.6192C104.943 46.5304 105.22 46.5451 105.462 46.6602C105.704 46.7753 105.89 46.9813 105.979 47.2331L110.394 59.6776C110.483 59.9296 110.468 60.2065 110.353 60.4476C110.237 60.6888 110.031 60.8744 109.778 60.9638L100.356 64.2892C100.104 64.378 99.826 64.3633 99.5843 64.2482C99.3425 64.1331 99.1564 63.9271 99.0668 63.6753Z" fill="#E6E6E6"/>
<path d="M98.4563 59.6615C96.7937 57.9847 96.0821 54.9941 95.6184 51.661C95.5349 51.425 95.5488 51.1657 95.6568 50.9398C95.7649 50.714 95.9583 50.5402 96.1947 50.4564L104.292 47.5985C104.529 47.5153 104.789 47.5291 105.015 47.6369C105.242 47.7447 105.416 47.9376 105.5 48.1734L109.428 59.2474C109.511 59.4834 109.497 59.7427 109.389 59.9686C109.281 60.1944 109.088 60.3682 108.851 60.4519L103.835 62.2224C102.781 62.593 101.623 62.5315 100.615 62.0514C99.6065 61.5713 98.8302 60.7118 98.4563 59.6615Z" fill="white"/>
<path d="M105.608 54.139L99.3005 56.3849C99.2508 56.4027 99.1981 56.4105 99.1453 56.4079C99.0926 56.4053 99.0409 56.3924 98.9931 56.3698C98.9454 56.3473 98.9026 56.3156 98.8671 56.2766C98.8317 56.2375 98.8043 56.1919 98.7866 56.1423C98.7688 56.0927 98.761 56.0401 98.7637 55.9875C98.7663 55.9348 98.7793 55.8833 98.802 55.8357C98.8246 55.7881 98.8564 55.7454 98.8956 55.7101C98.9348 55.6748 98.9806 55.6475 99.0303 55.6299L105.338 53.384C105.438 53.3484 105.549 53.354 105.645 53.3995C105.741 53.4451 105.815 53.5268 105.851 53.6269C105.887 53.727 105.881 53.8371 105.836 53.9331C105.79 54.0292 105.708 54.1032 105.608 54.139Z" fill="#6C63FF"/>
<path d="M99.9473 53.8205L98.5596 54.3146C98.5099 54.3323 98.4572 54.3401 98.4045 54.3374C98.3518 54.3348 98.3002 54.3219 98.2525 54.2993C98.2048 54.2768 98.162 54.2451 98.1266 54.2061C98.0912 54.167 98.0638 54.1214 98.0461 54.0718C98.0284 54.0223 98.0206 53.9697 98.0232 53.9171C98.0258 53.8646 98.0388 53.813 98.0614 53.7654C98.084 53.7179 98.1158 53.6752 98.1549 53.6399C98.194 53.6046 98.2398 53.5773 98.2895 53.5596L99.6772 53.0655C99.7269 53.0477 99.7796 53.0399 99.8323 53.0425C99.8851 53.0451 99.9368 53.058 99.9845 53.0806C100.032 53.1031 100.075 53.1348 100.111 53.1738C100.146 53.2129 100.173 53.2585 100.191 53.3081C100.209 53.3577 100.217 53.4103 100.214 53.4629C100.211 53.5155 100.198 53.5671 100.176 53.6147C100.153 53.6623 100.121 53.705 100.082 53.7403C100.043 53.7756 99.9971 53.8029 99.9473 53.8205Z" fill="#6C63FF"/>
<path d="M106.796 57.4583L100.488 59.7042C100.439 59.7219 100.386 59.7297 100.333 59.7272C100.28 59.7246 100.229 59.7117 100.181 59.6891C100.133 59.6666 100.09 59.6349 100.055 59.5958C100.019 59.5568 99.9921 59.5112 99.9743 59.4616C99.9566 59.4119 99.9488 59.3593 99.9514 59.3067C99.9541 59.2541 99.9671 59.2025 99.9897 59.155C100.012 59.1074 100.044 59.0647 100.083 59.0294C100.123 58.9941 100.168 58.9668 100.218 58.9492L106.526 56.7033C106.626 56.6675 106.737 56.673 106.833 56.7186C106.929 56.7641 107.003 56.8459 107.039 56.946C107.075 57.0462 107.07 57.1564 107.024 57.2524C106.978 57.3485 106.896 57.4226 106.796 57.4583Z" fill="#6C63FF"/>
<path d="M106.202 55.7987L99.8945 58.0445C99.8448 58.0623 99.7921 58.0701 99.7393 58.0675C99.6866 58.065 99.6349 58.052 99.5871 58.0295C99.5394 58.007 99.4966 57.9753 99.4611 57.9362C99.4257 57.8972 99.3983 57.8515 99.3806 57.8019C99.3628 57.7523 99.355 57.6997 99.3577 57.6471C99.3603 57.5945 99.3733 57.5429 99.396 57.4953C99.4186 57.4477 99.4504 57.4051 99.4896 57.3698C99.5288 57.3344 99.5746 57.3072 99.6243 57.2895L105.932 55.0437C106.032 55.008 106.143 55.0136 106.239 55.0592C106.335 55.1047 106.409 55.1865 106.445 55.2866C106.481 55.3866 106.475 55.4967 106.43 55.5928C106.384 55.6888 106.302 55.7629 106.202 55.7987Z" fill="#6C63FF"/>
<path d="M95.1884 52.5652C96.113 52.5652 96.8626 51.8175 96.8626 50.8952C96.8626 49.9729 96.113 49.2252 95.1884 49.2252C94.2637 49.2252 93.5142 49.9729 93.5142 50.8952C93.5142 51.8175 94.2637 52.5652 95.1884 52.5652Z" fill="#6C63FF"/>
<path d="M82.9807 8.31H69.3471C69.3027 8.31 69.2601 8.2924 69.2287 8.26109C69.1973 8.22977 69.1797 8.18729 69.1797 8.143C69.1797 8.09871 69.1973 8.05623 69.2287 8.02491C69.2601 7.99359 69.3027 7.976 69.3471 7.976H82.9807C83.0251 7.976 83.0677 7.99359 83.0991 8.02491C83.1305 8.05623 83.1481 8.09871 83.1481 8.143C83.1481 8.18729 83.1305 8.22977 83.0991 8.26109C83.0677 8.2924 83.0251 8.31 82.9807 8.31Z" fill="#3F3D56"/>
<path d="M51.7166 14.2338C52.9007 9.79995 55.1472 6.01337 58.8012 3.08416C58.9449 2.85865 59.1723 2.69919 59.4337 2.64076C59.6951 2.58233 59.969 2.6297 60.1954 2.77247L68.637 8.10954C68.8631 8.25282 69.023 8.47971 69.0815 8.74042C69.1401 9.00113 69.0926 9.27438 68.9495 9.5002L61.8648 20.6498C61.7212 20.8753 61.4937 21.0348 61.2324 21.0932C60.971 21.1516 60.6971 21.1043 60.4707 20.9615L52.0291 15.6244C51.803 15.4811 51.6431 15.2543 51.5845 14.9935C51.526 14.7328 51.5735 14.4596 51.7166 14.2338Z" fill="#E6E6E6"/>
<path d="M54.5041 11.2755C54.7991 8.93563 56.7173 6.53014 59.0587 4.10753C59.1933 3.89633 59.4063 3.74699 59.6511 3.69226C59.8958 3.63754 60.1524 3.6819 60.3644 3.81563L67.6193 8.40238C67.831 8.53658 67.9807 8.74906 68.0356 8.99323C68.0905 9.2374 68.046 9.49331 67.9119 9.70481L61.6076 19.6264C61.473 19.8376 61.26 19.987 61.0152 20.0417C60.7704 20.0964 60.5139 20.052 60.3018 19.9183L55.8076 17.0769C54.8645 16.4792 54.1976 15.5327 53.9532 14.4451C53.7089 13.3575 53.907 12.2176 54.5041 11.2755Z" fill="white"/>
<path d="M63.2757 13.4747L57.6089 9.91388C57.5642 9.88585 57.5255 9.8493 57.4949 9.80633C57.4644 9.76336 57.4426 9.71481 57.4309 9.66345C57.4192 9.61209 57.4177 9.55893 57.4266 9.50701C57.4355 9.45508 57.4546 9.40542 57.4827 9.36085C57.5109 9.31628 57.5476 9.27769 57.5907 9.24726C57.6338 9.21684 57.6825 9.1952 57.734 9.18356C57.7855 9.17193 57.8388 9.17053 57.8908 9.17945C57.9429 9.18838 57.9926 9.20744 58.0373 9.23557L63.7041 12.7964C63.7943 12.853 63.8582 12.9431 63.8818 13.0468C63.9054 13.1505 63.8867 13.2592 63.8299 13.3492C63.7731 13.4391 63.6828 13.5029 63.5789 13.5264C63.4749 13.55 63.3659 13.5314 63.2757 13.4747Z" fill="#6C63FF"/>
<path d="M60.0302 8.8373L58.7835 8.05392C58.6934 7.99721 58.6296 7.90715 58.6061 7.80353C58.5826 7.69992 58.6013 7.59123 58.658 7.50134C58.7148 7.41145 58.805 7.34772 58.9089 7.32414C59.0127 7.30057 59.1217 7.31908 59.2119 7.37561L60.4586 8.15899C60.5488 8.21565 60.6127 8.30573 60.6363 8.4094C60.6599 8.51307 60.6412 8.62185 60.5844 8.7118C60.5276 8.80175 60.4373 8.8655 60.3334 8.88904C60.2294 8.91258 60.1204 8.89397 60.0302 8.8373Z" fill="#6C63FF"/>
<path d="M61.3925 16.4567L55.7256 12.8959C55.6356 12.8392 55.5718 12.7491 55.5483 12.6455C55.5247 12.5419 55.5434 12.4332 55.6002 12.3433C55.6569 12.2534 55.7472 12.1897 55.851 12.1661C55.9549 12.1426 56.0638 12.1611 56.154 12.2176L61.8208 15.7784C61.8655 15.8065 61.9043 15.843 61.9348 15.886C61.9654 15.9289 61.9871 15.9775 61.9988 16.0289C62.0106 16.0802 62.012 16.1334 62.0031 16.1853C61.9942 16.2372 61.9751 16.2869 61.947 16.3315C61.9189 16.376 61.8822 16.4146 61.8391 16.445C61.796 16.4755 61.7473 16.4971 61.6958 16.5087C61.6443 16.5204 61.591 16.5218 61.5389 16.5129C61.4869 16.5039 61.4371 16.4849 61.3925 16.4567Z" fill="#6C63FF"/>
<path d="M62.334 14.9657L56.6672 11.4049C56.577 11.3482 56.5131 11.2582 56.4895 11.1545C56.4659 11.0508 56.4845 10.942 56.5413 10.8521C56.5981 10.7621 56.6884 10.6984 56.7924 10.6749C56.8963 10.6513 57.0054 10.6699 57.0955 10.7266L62.7623 14.2874C62.8071 14.3154 62.8458 14.352 62.8763 14.395C62.9069 14.4379 62.9286 14.4865 62.9403 14.5378C62.9521 14.5892 62.9535 14.6424 62.9446 14.6943C62.9357 14.7462 62.9167 14.7959 62.8885 14.8404C62.8604 14.885 62.8237 14.9236 62.7806 14.954C62.7375 14.9844 62.6888 15.0061 62.6373 15.0177C62.5858 15.0294 62.5325 15.0308 62.4804 15.0218C62.4284 15.0129 62.3786 14.9938 62.334 14.9657Z" fill="#6C63FF"/>
<path d="M68.401 10.481C69.3257 10.481 70.0752 9.73332 70.0752 8.811C70.0752 7.88868 69.3257 7.14099 68.401 7.14099C67.4764 7.14099 66.7268 7.88868 66.7268 8.811C66.7268 9.73332 67.4764 10.481 68.401 10.481Z" fill="#6C63FF"/>
<path d="M53.5948 29.8061H35.8688C35.7675 29.8061 35.6702 29.7659 35.5985 29.6944C35.5268 29.6229 35.4866 29.5259 35.4866 29.4248C35.4866 29.3237 35.5268 29.2267 35.5985 29.1552C35.6702 29.0837 35.7675 29.0435 35.8688 29.0435H53.5948C53.6962 29.0435 53.7934 29.0837 53.8651 29.1552C53.9368 29.2267 53.9771 29.3237 53.9771 29.4248C53.9771 29.5259 53.9368 29.6229 53.8651 29.6944C53.7934 29.7659 53.6962 29.8061 53.5948 29.8061Z" fill="#6C63FF"/>
<path d="M62.5681 33.2921H35.8689C35.8186 33.2922 35.7688 33.2824 35.7224 33.2633C35.6759 33.2442 35.6337 33.2161 35.5981 33.1807C35.5625 33.1453 35.5343 33.1032 35.515 33.0569C35.4958 33.0106 35.4858 32.9609 35.4858 32.9108C35.4858 32.8607 35.4958 32.811 35.515 32.7647C35.5343 32.7184 35.5625 32.6763 35.5981 32.6409C35.6337 32.6055 35.6759 32.5774 35.7224 32.5583C35.7688 32.5392 35.8186 32.5294 35.8689 32.5295H62.5681C62.6693 32.5297 62.7663 32.57 62.8378 32.6415C62.9094 32.7129 62.9495 32.8098 62.9495 32.9108C62.9495 33.0118 62.9094 33.1087 62.8378 33.1801C62.7663 33.2516 62.6693 33.2919 62.5681 33.2921Z" fill="#F2F2F2"/>
<path d="M62.5684 36.0149H35.8682C35.7667 36.0149 35.6694 36.0551 35.5976 36.1267C35.5259 36.1983 35.4856 36.2953 35.4856 36.3965C35.4856 36.4977 35.5259 36.5948 35.5976 36.6664C35.6694 36.7379 35.7667 36.7781 35.8682 36.7781H62.5684C62.6699 36.7781 62.7672 36.7379 62.8389 36.6664C62.9107 36.5948 62.951 36.4977 62.951 36.3965C62.951 36.2953 62.9107 36.1983 62.8389 36.1267C62.7672 36.0551 62.6699 36.0149 62.5684 36.0149Z" fill="#F2F2F2"/>
<path d="M62.5681 40.2641H35.8689C35.8186 40.2642 35.7688 40.2544 35.7224 40.2353C35.6759 40.2162 35.6337 40.1881 35.5981 40.1527C35.5625 40.1173 35.5343 40.0752 35.515 40.0289C35.4958 39.9826 35.4858 39.9329 35.4858 39.8828C35.4858 39.8327 35.4958 39.783 35.515 39.7367C35.5343 39.6904 35.5625 39.6483 35.5981 39.6129C35.6337 39.5775 35.6759 39.5494 35.7224 39.5303C35.7688 39.5112 35.8186 39.5014 35.8689 39.5015H62.5681C62.6693 39.5017 62.7663 39.542 62.8378 39.6135C62.9094 39.6849 62.9495 39.7818 62.9495 39.8828C62.9495 39.9838 62.9094 40.0807 62.8378 40.1521C62.7663 40.2236 62.6693 40.2639 62.5681 40.2641Z" fill="#F2F2F2"/>
<path d="M14.4057 48.2126L15.2102 41.61L13.0208 41.453L12.5297 48.3765C12.4465 48.5501 12.4107 48.7425 12.4261 48.9343C12.4415 49.1261 12.5074 49.3105 12.6173 49.4687C12.7272 49.6268 12.877 49.7532 13.0517 49.8349C13.2263 49.9167 13.4195 49.9509 13.6117 49.9341C13.8038 49.9173 13.9882 49.8501 14.1459 49.7393C14.3036 49.6286 14.4292 49.4781 14.5098 49.3033C14.5904 49.1285 14.6233 48.9356 14.605 48.744C14.5867 48.5524 14.518 48.3691 14.4057 48.2126Z" fill="#A0616A"/>
<path d="M17.2172 32.338C16.8101 32.2826 16.3961 32.3647 16.0412 32.5713C15.6863 32.7779 15.411 33.097 15.2591 33.4779C14.3389 35.7853 12.5637 40.3128 12.6601 40.6652C12.7899 41.1396 12.9197 41.1828 12.5737 41.3554C12.2278 41.528 11.7521 41.2261 12.2278 41.528C12.7035 41.8298 12.0981 41.9162 12.3144 42.1318C12.5306 42.3475 16.12 42.8214 16.12 42.8214C16.12 42.8214 15.3273 40.4172 15.5937 40.0664C15.86 39.7157 16.7249 40.1469 16.2924 39.7156C15.8599 39.2843 15.4572 39.1652 15.9612 38.9659C16.4653 38.7666 16.9068 38.5463 16.9068 38.5463L18.6301 34.9492C18.7552 34.6882 18.8166 34.4015 18.8095 34.1124C18.8024 33.8232 18.7269 33.5398 18.5892 33.2853C18.4514 33.0308 18.2554 32.8123 18.017 32.6477C17.7786 32.4831 17.5045 32.377 17.2172 32.338Z" fill="#E6E6E6"/>
<path d="M20.3634 77.2275L21.5588 77.2273L22.1273 72.6281H20.363L20.3634 77.2275Z" fill="#A0616A"/>
<path d="M20.3213 78.4714L23.9974 78.4712V78.4249C23.9973 78.0464 23.8466 77.6834 23.5783 77.4157C23.3099 77.1481 22.946 76.9977 22.5666 76.9977L21.895 76.4896L20.6422 76.9978L20.3213 76.9978L20.3213 78.4714Z" fill="#2F2E41"/>
<path d="M1.15503 69.2818L1.64423 70.3698L6.08423 69.0054L5.36214 67.3997L1.15503 69.2818Z" fill="#A0616A"/>
<path d="M0 69.7525L1.50422 73.0982L1.54663 73.0792C1.89287 72.9243 2.16324 72.6386 2.29829 72.2849C2.43333 71.9311 2.42198 71.5384 2.26674 71.193L2.45678 70.3739L1.47928 69.4415L1.34798 69.1495L0 69.7525Z" fill="#2F2E41"/>
<path d="M19.2024 29.5372C20.4616 29.5372 21.4823 28.5191 21.4823 27.2631C21.4823 26.0072 20.4616 24.989 19.2024 24.989C17.9433 24.989 16.9226 26.0072 16.9226 27.2631C16.9226 28.5191 17.9433 29.5372 19.2024 29.5372Z" fill="#A0616A"/>
<path d="M23.2542 48.3351L14.639 48.0623C14.639 48.0623 12.8161 51.5811 13.9327 53.7775C15.0493 55.9739 14.1653 62.1964 14.1653 62.1964L3.01538 67.8412L3.97262 70.0237C3.97262 70.0237 6.4341 69.8873 6.84435 69.478C7.22425 69.1456 7.70689 68.953 8.21184 68.9324C8.48534 68.9324 16.5535 65.3859 16.5535 65.3859L18.6497 59.3282L20.7766 67.6027L19.7337 74.9556L22.2233 75.021C22.2233 75.021 23.082 74.5906 22.8263 73.944C22.5705 73.2974 22.4382 73.016 23.0513 72.4747C23.6645 71.9334 24.8519 63.7361 24.8519 63.7361L23.4436 54.2773C23.4436 54.2773 22.6047 54.0418 23.3134 53.4033C24.0221 52.7648 23.2979 52.0031 23.2979 52.0031C23.2979 52.0031 23.8973 51.1574 23.29 51.2931C22.6828 51.4288 23.2542 48.0623 23.2542 48.0623" fill="#2F2E41"/>
<path d="M21.3289 31.0417L18.1479 30.8451L17.5917 31.7634C17.5917 31.7634 16.3394 31.6936 16.6129 32.1028C16.8864 32.512 16.7274 32.177 16.3283 32.4809C15.9292 32.7849 15.3902 32.8388 15.6597 33.0846C15.699 33.1205 15.6831 33.2265 15.6273 33.3816C14.5266 36.3587 14.2558 39.5778 14.8436 42.6963C15.0305 43.6457 15.1497 44.3384 15.1087 44.3794C14.9719 44.5158 14.2882 44.3794 14.6984 44.7886C15.1087 45.1978 15.7924 44.7886 14.9719 45.607C14.1514 46.4254 12.4286 49.8913 14.4249 50.1084C16.4212 50.3255 23.8606 49.8356 23.7238 49.29L22.7666 45.4706L21.987 34.481L21.206 32.3821L21.3289 31.0417Z" fill="#E6E6E6"/>
<path d="M21.4952 50.3182L20.1662 43.8005L18.0393 44.3418L19.7672 51.0652C19.7433 51.2561 19.7703 51.45 19.8457 51.6271C19.9211 51.8042 20.0421 51.9583 20.1964 52.0737C20.3508 52.1891 20.533 52.2618 20.7246 52.2843C20.9161 52.3068 21.1103 52.2783 21.2873 52.2018C21.4643 52.1253 21.6179 52.0034 21.7324 51.8486C21.8469 51.6938 21.9184 51.5115 21.9395 51.3202C21.9606 51.1289 21.9306 50.9355 21.8526 50.7595C21.7745 50.5836 21.6512 50.4313 21.4952 50.3182Z" fill="#A0616A"/>
<path d="M19.1323 34.371C18.7285 34.4468 18.3617 34.6553 18.0905 34.9632C17.8193 35.2711 17.6592 35.6607 17.6358 36.0699C17.4939 38.5491 17.2444 43.4042 17.4475 43.7081C17.721 44.1173 17.8577 44.1173 17.5842 44.3901C17.3107 44.663 16.7637 44.5266 17.3107 44.663C17.8577 44.7994 17.3107 45.0722 17.5842 45.2086C17.8577 45.345 21.4132 44.663 21.4132 44.663C21.4132 44.663 19.8994 42.6319 20.0409 42.2152C20.1824 41.7984 21.1397 41.9348 20.5927 41.662C20.0457 41.3892 19.6258 41.4032 20.0409 41.0552C20.4559 40.7072 20.805 40.359 20.805 40.359L21.3002 36.4029C21.3361 36.1159 21.3036 35.8245 21.2052 35.5524C21.1068 35.2804 20.9454 35.0353 20.7341 34.8373C20.5228 34.6392 20.2676 34.4937 19.9892 34.4127C19.7108 34.3317 19.4172 34.3174 19.1323 34.371Z" fill="#E6E6E6"/>
<path d="M19.8898 29.4544C19.6027 29.6726 19.2916 29.8576 18.9625 30.0057C18.6303 30.154 18.2573 30.1847 17.9052 30.093C17.7303 30.0381 17.5702 29.9441 17.4371 29.8183C17.304 29.6925 17.2014 29.5381 17.137 29.3668C17.0114 29.0243 15.962 28.6242 16.16 28.3176C16.2596 28.1957 16.3421 28.0607 16.4051 27.9165C16.4338 27.8433 16.4329 27.7619 16.4027 27.6893C16.3725 27.6167 16.3152 27.5587 16.243 27.5273C16.1799 27.5182 16.1155 27.5305 16.0602 27.5622C16.0049 27.594 15.9619 27.6433 15.9381 27.7024C15.8937 27.8219 15.8774 27.95 15.8906 28.0767C15.7894 27.9921 15.7183 27.8771 15.6881 27.7489C15.6579 27.6207 15.6702 27.4861 15.723 27.3654L15.3684 27.1878C15.6745 27.0689 16.8394 26.5871 16.5805 26.3854C16.3615 26.2148 15.6565 25.6605 15.7352 25.4608C15.8272 25.2663 15.9561 25.0913 16.115 24.9458C16.4207 24.6275 16.754 24.2933 17.1868 24.2041C17.5567 24.1278 17.9355 24.2445 18.2988 24.3475C18.6621 24.4504 19.0551 24.54 19.4109 24.4135C19.7666 24.2871 20.0365 23.8563 19.8585 23.5241C19.9947 23.5228 20.1284 23.5607 20.2436 23.633C20.3589 23.7053 20.4509 23.8092 20.5088 23.9322L20.5697 23.3727C20.8416 23.444 21.0929 23.578 21.3033 23.764C21.4974 23.9654 21.5799 24.3034 21.4108 24.526C21.2233 24.7728 20.8041 24.8009 20.6931 25.09C20.5957 25.3437 20.8067 25.6001 20.9829 25.8072C21.1591 26.0143 21.3131 26.3358 21.1282 26.5352C20.9752 26.7003 20.7066 26.6477 20.4885 26.7042C20.1595 26.7894 19.9571 27.1353 19.914 27.4716C19.8977 27.8105 19.9232 28.1501 19.9897 28.4828C20.0558 28.8184 20.0027 29.1666 19.8396 29.4675" fill="#2F2E41"/>
<path d="M21.3435 28.0487C21.1104 28.0487 20.8521 27.9586 20.8521 27.726V26.2492C20.8521 26.0167 21.1104 26.0447 21.3435 26.0447C21.9245 25.6562 22.417 26.2227 22.4365 26.9876C22.4298 27.8129 21.9749 28.3404 21.3435 28.0487Z" fill="#3F3D56"/>
<path d="M21.0191 25.8282H20.2749C20.026 25.8282 19.0488 25.811 18.9997 26.0447C17.6864 25.8127 17.1704 25.8065 16.4078 26.2374C16.3171 26.2374 16.2302 26.2733 16.166 26.3373C16.1019 26.4012 16.0659 26.488 16.0659 26.5784C16.0659 26.6688 16.1019 26.7556 16.166 26.8195C16.2302 26.8835 16.3171 26.9194 16.4078 26.9194L18.8323 26.8797L19.7581 27.6316C19.7581 27.6993 19.7715 27.7663 19.7975 27.8289C19.8234 27.8914 19.8615 27.9482 19.9095 27.9961C19.9575 28.044 20.0144 28.0819 20.0771 28.1078C20.1398 28.1337 20.207 28.1471 20.2749 28.1471H21.0191C21.087 28.1471 21.1542 28.1337 21.2169 28.1078C21.2796 28.0819 21.3365 28.044 21.3845 27.9961C21.4325 27.9482 21.4706 27.8914 21.4965 27.8289C21.5225 27.7663 21.5359 27.6993 21.5359 27.6316C21.2975 27.1722 21.258 26.7379 21.5359 26.3436C21.5359 26.2759 21.5225 26.2089 21.4965 26.1464C21.4706 26.0838 21.4325 26.027 21.3845 25.9791C21.3365 25.9313 21.2796 25.8933 21.2169 25.8674C21.1542 25.8415 21.087 25.8282 21.0191 25.8282Z" fill="#6C63FF"/>
</g>
<defs>
<clipPath id="clip0_9_390">
<rect width="135" height="87" fill="white"/>
</clipPath>
</defs>
</svg>