<svg width="35" height="25" viewBox="0 0 35 25" fill="none" xmlns="http://www.w3.org/2000/svg">
<path d="M1.42407 5.26389C1.42407 3.28568 3.02773 1.68202 5.00594 1.68202C6.98416 1.68202 8.58782 3.28568 8.58782 5.26389V24.9276H1.42407V5.26389Z" fill="#4285F4"/>
<path d="M25.8772 5.33627C25.8772 3.35805 27.4809 1.75439 29.4591 1.75439C31.4373 1.75439 33.0409 3.35805 33.0409 5.33627V25H25.8772V5.33627Z" fill="#34A853"/>
<path d="M2.34801 2.75202C3.64479 1.23212 5.92816 1.05125 7.44806 2.34804L21.9945 14.7592L17.2984 20.2632L2.75198 7.85207C1.23208 6.55528 1.05122 4.27191 2.34801 2.75202Z" fill="#E45246"/>
<path d="M32.1529 2.73903C33.4581 4.25175 33.2898 6.53609 31.7771 7.84123L17.2993 20.3324L12.5729 14.8543L27.0507 2.36318C28.5635 1.05803 30.8478 1.22631 32.1529 2.73903Z" fill="#E45246"/>
<path fill-rule="evenodd" clip-rule="evenodd" d="M25.8772 13.1578V5.12435C25.8772 3.10169 27.5169 1.46199 29.5396 1.46199C31.4503 1.46199 33.0193 2.92525 33.1871 4.79233C33.1717 5.87189 32.7318 6.94283 31.8893 7.70669L25.8772 13.1578Z" fill="#FBBC04"/>
</svg>