<svg width="30" height="30" viewBox="0 0 30 30" fill="none" xmlns="http://www.w3.org/2000/svg">
<path d="M15.0066 7.36327C10.7477 7.36327 7.31239 10.7699 7.31239 14.9934C7.31239 19.2168 10.7477 22.6234 15.0066 22.6234C19.2655 22.6234 22.7008 19.2168 22.7008 14.9934C22.7008 10.7699 19.2655 7.36327 15.0066 7.36327ZM15.0066 19.9539C12.2544 19.9539 10.0044 17.7293 10.0044 14.9934C10.0044 12.2574 12.2477 10.0328 15.0066 10.0328C17.7655 10.0328 20.0088 12.2574 20.0088 14.9934C20.0088 17.7293 17.7588 19.9539 15.0066 19.9539ZM24.8102 7.05116C24.8102 8.04062 24.0066 8.83085 23.0155 8.83085C22.0178 8.83085 21.2209 8.03398 21.2209 7.05116C21.2209 6.06835 22.0244 5.27148 23.0155 5.27148C24.0066 5.27148 24.8102 6.06835 24.8102 7.05116ZM29.9061 8.85741C29.7923 6.47343 29.2432 4.36171 27.482 2.62187C25.7276 0.882025 23.5981 0.337494 21.1941 0.217963C18.7164 0.0785095 11.2901 0.0785095 8.8124 0.217963C6.41507 0.330853 4.28561 0.875384 2.52445 2.61523C0.763288 4.35507 0.220877 6.46679 0.100342 8.85077C-0.0402832 11.3078 -0.0402832 18.6723 0.100342 21.1293C0.214181 23.5133 0.763288 25.625 2.52445 27.3648C4.28561 29.1047 6.40838 29.6492 8.8124 29.7687C11.2901 29.9082 18.7164 29.9082 21.1941 29.7687C23.5981 29.6558 25.7276 29.1113 27.482 27.3648C29.2365 25.625 29.7856 23.5133 29.9061 21.1293C30.0468 18.6723 30.0468 11.3144 29.9061 8.85741ZM26.7053 23.7656C26.1829 25.0672 25.1718 26.0699 23.8526 26.5945C21.8771 27.3715 17.1896 27.1922 15.0066 27.1922C12.8236 27.1922 8.12936 27.3648 6.16061 26.5945C4.84811 26.0766 3.83695 25.0738 3.30793 23.7656C2.52445 21.8066 2.70525 17.1582 2.70525 14.9934C2.70525 12.8285 2.53115 8.17343 3.30793 6.22109C3.83025 4.91952 4.84141 3.91679 6.16061 3.39218C8.13606 2.61523 12.8236 2.79452 15.0066 2.79452C17.1896 2.79452 21.8838 2.62187 23.8526 3.39218C25.1651 3.91015 26.1762 4.91288 26.7053 6.22109C27.4887 8.18007 27.3079 12.8285 27.3079 14.9934C27.3079 17.1582 27.4887 21.8133 26.7053 23.7656Z" fill="url(#paint0_linear_12_7)"/>
<defs>
<linearGradient id="paint0_linear_12_7" x1="20.9999" y1="-8.05919e-06" x2="9.99988" y2="30" gradientUnits="userSpaceOnUse">
<stop stop-color="#C5008E"/>
<stop offset="0.614" stop-color="#C646D1"/>
<stop offset="1" stop-color="#FFFA7E"/>
</linearGradient>
</defs>
</svg>