<svg width="34" height="35" viewBox="0 0 34 35" xmlns="http://www.w3.org/2000/svg">
    <path d="M33.3777 12.8351C32.7934 10.4813 31.6853 8.70654 29.3251 8.70654H26.2818V12.3171C26.2818 15.1202 23.9139 17.4815 21.2121 17.4815H13.1068C10.8907 17.4815 9.05408 19.3858 9.05408 21.6177V29.372C9.05408 31.581 10.9666 32.8759 13.1068 33.5081C15.6719 34.2622 18.1385 34.3993 21.2121 33.5081C23.2536 32.914 25.2648 31.7181 25.2648 29.372V26.2718H17.167V25.2358H29.3251C31.6853 25.2358 32.5581 23.5829 33.3777 21.1073C34.2277 18.5556 34.1898 16.1028 33.3777 12.8351ZM21.7206 28.336C22.563 28.336 23.246 29.0292 23.246 29.8823C23.246 30.7431 22.563 31.4362 21.7206 31.4362C20.8858 31.4362 20.1951 30.7354 20.1951 29.8823C20.2027 29.0216 20.8858 28.336 21.7206 28.336ZM12.7349 16.4608H20.8402C23.0943 16.4608 24.8929 14.5946 24.8929 12.3247V4.56279C24.8929 2.35381 23.0411 0.70088 20.8402 0.327637C18.1233 -0.121777 15.171 -0.0989249 12.7349 0.335255C9.30452 0.94463 8.6822 2.2167 8.6822 4.57041V7.67061H16.7951V8.70654H5.6389C3.27863 8.70654 1.21434 10.131 0.569253 12.8351C-0.174497 15.9353 -0.204854 17.87 0.569253 21.1073C1.14604 23.5144 2.5197 25.2358 4.87997 25.2358H7.66524V21.5187C7.66524 18.8298 9.97997 16.4608 12.7349 16.4608ZM12.2264 5.59873C11.384 5.59873 10.7009 4.90557 10.7009 4.05244C10.7085 3.1917 11.384 2.49854 12.2264 2.49854C13.0612 2.49854 13.7518 3.19932 13.7518 4.05244C13.7518 4.90557 13.0688 5.59873 12.2264 5.59873Z" fill="black"/>
</svg>